M48
;Layer_Color=9474304
;FILE_FORMAT=4:2
METRIC,LZ
;TYPE=PLATED
T1F00S00C0.60
T2F00S00C0.80
T3F00S00C1.00
T4F00S00C1.50
%
T01
X005Y00085
X00515
X0064Y0012
X00655
X007Y00115
Y0016
X0074Y00275
Y00315
Y00355
Y00395
T02
X00375Y0003
Y0008
X0041Y0014
X004904Y0003
X005158
X006682
X006936
X00719
Y001824
X006936
X006682
X00632Y003138
Y003392
Y003646
Y0039
X00505
Y003646
Y003392
Y003138
X00435Y00315
Y00265
X0041Y0019
X004904Y001824
X005158
X00285Y002
X00235
X00435Y0037
Y0042
T03
X005468Y00235
X005722
X005976
X00623
X006484
X006738
X006992
X007246
X0075
X005214
X00496
X004706
X00395Y0043
X0017
T04
X0007Y00075
Y00125
X0086
Y00075
Y00175
Y00225
Y00275
Y00325
Y00375
X0007
Y00325
Y00275
Y00225
Y00175
M30
