M48
;Layer_Color=9474304
;FILE_FORMAT=4:2
METRIC,LZ
;TYPE=PLATED
T1F00S00C0.60
T2F00S00C0.80
T3F00S00C1.00
%
T01
X00025Y00015
X00035Y00065
X0006
X00085
X0011
X001Y00095
X00075
X0005
X00125
X00145Y0008
X002
X001975Y001225
X002125
X002725Y001175
Y00135
X0031Y0011
X003275Y0007
Y0003
X003025Y000375
X002825
X002528Y000621
X0021Y00035
X0017Y00015
X0037Y0008
X0046Y00075
X00465Y00145
X005Y0014
X0053Y0012
X00415Y00145
X0049Y00015
X00605
X0058Y0014
X00585Y00265
Y00325
Y00365
X00605Y00435
X00485
X00435Y00395
X003887Y0038
X00365
Y00355
Y0031
X00395Y00325
X00425Y0031
X0044Y00335
X0033Y0029
X00345Y00255
X00335Y002
X003275Y00175
Y001575
X003425Y00155
X003975
X00475Y001725
X0053Y00265
X0029Y0027
X0025Y0025
X002375Y00215
X002151Y002151
X001875Y00215
X0017
X001675Y0025
X00175Y002925
Y0031
X0018Y0033
X0017Y00345
X0018Y0036
X0017Y00375
X00195Y00395
X00225Y00395
X00225Y00415
X002185Y0037
X00225Y0032
Y00295
X00275Y00355
X00295Y00395
X0028Y00435
X002825Y001673
X002375Y0018
X002325Y001525
X00185
X00155Y00165
X00125Y00155
X0011Y0016
X00115Y00215
X00095
X0009Y002825
X0011
X0014Y002825
X0013Y00335
X00135Y00385
X00125Y0041
X0011
X00025Y00435
T02
X0017Y00035
Y00085
T03
X005492Y00235
X005746
X006
X005238
X004984
X00473
X004476
X004222
X003968
X003714
X00346
X003206
X00035Y002258
Y002004
Y00175
Y002512
Y002766
Y00302
M30
