G04 Layer_Physical_Order=1*
G04 Layer_Color=255*
%FSLAX42Y42*%
%MOMM*%
G71*
G01*
G75*
%ADD10R,5.00X2.00*%
%ADD11R,2.00X2.00*%
%ADD12R,3.50X2.50*%
%ADD13C,2.00*%
%ADD14C,1.00*%
%ADD15C,1.50*%
%ADD16C,0.25*%
%ADD17C,2.00*%
%ADD18C,1.60*%
%ADD19C,1.50*%
%ADD20C,1.80*%
%ADD21R,1.80X1.80*%
%ADD22C,2.50*%
%ADD23R,2.50X2.50*%
%ADD24R,1.50X1.50*%
%ADD25C,1.20*%
D10*
X1900Y950D02*
D03*
Y1250D02*
D03*
X2900Y950D02*
D03*
Y1250D02*
D03*
D11*
X7200Y2750D02*
D03*
X6800D02*
D03*
Y3150D02*
D03*
X7200D02*
D03*
Y3550D02*
D03*
X6800D02*
D03*
Y3950D02*
D03*
X7200D02*
D03*
D12*
X3550Y2050D02*
D03*
Y1300D02*
D03*
D13*
X2900Y2050D02*
X3550D01*
X2850Y2000D02*
X2900Y2050D01*
X2400Y1550D02*
X2850Y2000D01*
X2400Y1100D02*
Y1550D01*
Y1100D02*
X2550Y950D01*
X2900D01*
Y1250D02*
X3500D01*
X1450Y950D02*
X1900D01*
X1250Y750D02*
X1450Y950D01*
X700Y750D02*
X1250D01*
X700Y1250D02*
X1900D01*
X3950Y2050D02*
X4100Y1900D01*
X3550Y2050D02*
X3950D01*
X3500Y550D02*
X3750Y300D01*
X3500Y550D02*
Y1250D01*
D14*
X5722Y1878D02*
Y2350D01*
Y1878D02*
X6400Y1200D01*
X6550D01*
X5150Y850D02*
Y1250D01*
X5468Y1568D01*
Y2350D01*
X5000Y850D02*
X5150D01*
X7200Y2750D02*
X7400D01*
X7200Y3150D02*
X7400D01*
X7200Y3550D02*
X7400D01*
X7200Y3950D02*
X7400D01*
D15*
X7000Y1150D02*
Y1600D01*
X6850D02*
X7000D01*
X8450D01*
X6682Y1768D02*
X6850Y1600D01*
X6682Y1768D02*
Y1824D01*
X3500Y1250D02*
X3550Y1300D01*
X4960Y2350D02*
Y2460D01*
X5250Y2750D01*
X6800D01*
X6992Y2558D01*
Y2350D02*
Y2558D01*
X6800Y2750D02*
Y3150D01*
Y3550D01*
Y3950D01*
X8450Y1600D02*
X8600Y1750D01*
X8250Y2100D02*
X8600Y1750D01*
X7150Y2100D02*
X8250D01*
X6992Y2258D02*
X7150Y2100D01*
X6992Y2258D02*
Y2350D01*
D16*
X0Y0D02*
X9300D01*
Y4500D01*
X0D02*
X9300D01*
X0Y0D02*
Y4500D01*
D17*
X3950Y4300D02*
D03*
X1700D02*
D03*
D18*
X4904Y300D02*
D03*
X5158D02*
D03*
X7190D02*
D03*
Y1824D02*
D03*
X6682D02*
D03*
Y300D02*
D03*
X5158Y1824D02*
D03*
X4904D02*
D03*
X6936Y300D02*
D03*
Y1824D02*
D03*
X5050Y3900D02*
D03*
Y3646D02*
D03*
Y3392D02*
D03*
Y3138D02*
D03*
X6320D02*
D03*
Y3392D02*
D03*
Y3646D02*
D03*
Y3900D02*
D03*
D19*
X4350Y4200D02*
D03*
Y3700D02*
D03*
Y2650D02*
D03*
Y3150D02*
D03*
X4100Y1900D02*
D03*
Y1400D02*
D03*
X2350Y2000D02*
D03*
X2850D02*
D03*
X3750Y300D02*
D03*
D20*
X5214Y2350D02*
D03*
X4960D02*
D03*
X4706D02*
D03*
X5976D02*
D03*
X5722D02*
D03*
X5468D02*
D03*
X6230D02*
D03*
X6484D02*
D03*
X6738D02*
D03*
X6992D02*
D03*
X7246D02*
D03*
D21*
X7500D02*
D03*
D22*
X8600Y750D02*
D03*
Y1250D02*
D03*
Y1750D02*
D03*
Y2250D02*
D03*
Y3250D02*
D03*
Y2750D02*
D03*
X700Y3750D02*
D03*
Y3250D02*
D03*
Y2750D02*
D03*
Y2250D02*
D03*
Y1250D02*
D03*
Y1750D02*
D03*
D23*
X8600Y3750D02*
D03*
X700Y750D02*
D03*
D24*
X3750Y800D02*
D03*
D25*
X6550Y1200D02*
D03*
X6400D02*
D03*
X7000Y1150D02*
D03*
Y1600D02*
D03*
X5000Y850D02*
D03*
X5150D02*
D03*
X7400Y2750D02*
D03*
Y3150D02*
D03*
Y3550D02*
D03*
Y3950D02*
D03*
M02*
