G04 Layer_Color=8388736*
%FSLAX42Y42*%
%MOMM*%
G71*
G01*
G75*
%ADD16C,0.25*%
%ADD20C,1.80*%
%ADD35R,5.20X2.20*%
%ADD36R,2.20X2.20*%
%ADD37R,3.70X2.70*%
%ADD38C,2.20*%
%ADD39C,1.70*%
%ADD40C,2.00*%
%ADD41R,2.00X2.00*%
%ADD42C,2.70*%
%ADD43R,2.70X2.70*%
%ADD44R,1.70X1.70*%
%ADD45C,1.40*%
D16*
X0Y0D02*
X9300D01*
Y4500D01*
X0D02*
X9300D01*
X0Y0D02*
Y4500D01*
D20*
X4904Y300D02*
D03*
X5158D02*
D03*
X7190D02*
D03*
Y1824D02*
D03*
X6682D02*
D03*
Y300D02*
D03*
X5158Y1824D02*
D03*
X4904D02*
D03*
X6936Y300D02*
D03*
Y1824D02*
D03*
X5050Y3900D02*
D03*
Y3646D02*
D03*
Y3392D02*
D03*
Y3138D02*
D03*
X6320D02*
D03*
Y3392D02*
D03*
Y3646D02*
D03*
Y3900D02*
D03*
D35*
X1900Y950D02*
D03*
Y1250D02*
D03*
X2900Y950D02*
D03*
Y1250D02*
D03*
D36*
X7200Y2750D02*
D03*
X6800D02*
D03*
Y3150D02*
D03*
X7200D02*
D03*
Y3550D02*
D03*
X6800D02*
D03*
Y3950D02*
D03*
X7200D02*
D03*
D37*
X3550Y2050D02*
D03*
Y1300D02*
D03*
D38*
X3950Y4300D02*
D03*
X1700D02*
D03*
D39*
X4350Y4200D02*
D03*
Y3700D02*
D03*
Y2650D02*
D03*
Y3150D02*
D03*
X4100Y1900D02*
D03*
Y1400D02*
D03*
X2350Y2000D02*
D03*
X2850D02*
D03*
X3750Y300D02*
D03*
D40*
X5214Y2350D02*
D03*
X4960D02*
D03*
X4706D02*
D03*
X5976D02*
D03*
X5722D02*
D03*
X5468D02*
D03*
X6230D02*
D03*
X6484D02*
D03*
X6738D02*
D03*
X6992D02*
D03*
X7246D02*
D03*
D41*
X7500D02*
D03*
D42*
X8600Y750D02*
D03*
Y1250D02*
D03*
Y1750D02*
D03*
Y2250D02*
D03*
Y3250D02*
D03*
Y2750D02*
D03*
X700Y3750D02*
D03*
Y3250D02*
D03*
Y2750D02*
D03*
Y2250D02*
D03*
Y1250D02*
D03*
Y1750D02*
D03*
D43*
X8600Y3750D02*
D03*
X700Y750D02*
D03*
D44*
X3750Y800D02*
D03*
D45*
X6550Y1200D02*
D03*
X6400D02*
D03*
X7000Y1150D02*
D03*
Y1600D02*
D03*
X5000Y850D02*
D03*
X5150D02*
D03*
X7400Y2750D02*
D03*
Y3150D02*
D03*
Y3550D02*
D03*
Y3950D02*
D03*
M02*
