G04 Layer_Physical_Order=2*
G04 Layer_Color=16711680*
%FSLAX42Y42*%
%MOMM*%
G71*
G01*
G75*
%ADD10R,1.00X1.40*%
%ADD13R,1.40X1.00*%
%ADD14R,1.50X1.70*%
%ADD16R,1.50X0.60*%
%ADD17C,0.50*%
%ADD18C,0.30*%
%ADD19C,1.00*%
%ADD21C,0.25*%
%ADD22R,1.80X1.80*%
%ADD23C,1.80*%
%ADD24C,1.50*%
%ADD25R,1.80X1.80*%
%ADD26C,1.20*%
G36*
X6300Y0D02*
X0D01*
Y4500D01*
X6300D01*
Y0D01*
D02*
G37*
%LPC*%
G36*
X4350Y4042D02*
X4315Y4035D01*
X4285Y4015D01*
X4282Y4010D01*
X3850D01*
X3808Y3992D01*
X3694Y3879D01*
X3685Y3885D01*
X3650Y3892D01*
X3615Y3885D01*
X3585Y3865D01*
X3565Y3835D01*
X3558Y3800D01*
X3565Y3765D01*
X3585Y3735D01*
X3615Y3715D01*
X3650Y3708D01*
X3685Y3715D01*
X3715Y3735D01*
X3726Y3751D01*
X3742Y3758D01*
X3750Y3766D01*
X3767Y3766D01*
X3809Y3754D01*
X3822Y3735D01*
X3851Y3715D01*
X3887Y3708D01*
X3890Y3705D01*
Y3553D01*
X3850Y3530D01*
X3840Y3530D01*
X3775D01*
Y3450D01*
X3750D01*
Y3425D01*
X3650D01*
Y3380D01*
X3650Y3370D01*
Y3330D01*
X3650Y3320D01*
Y3234D01*
X3608Y3192D01*
X3601Y3176D01*
X3585Y3165D01*
X3565Y3135D01*
X3558Y3100D01*
X3559Y3094D01*
X3427Y2961D01*
X3369Y2963D01*
X3365Y2965D01*
X3365Y2965D01*
X3335Y2985D01*
X3300Y2992D01*
X3265Y2985D01*
X3235Y2965D01*
X3215Y2935D01*
X3207Y2899D01*
X3195Y2865D01*
X3195Y2819D01*
Y2635D01*
X3338D01*
X3365Y2585D01*
X3358Y2550D01*
X3365Y2515D01*
X3376Y2498D01*
X3374Y2439D01*
X3373Y2437D01*
X3362Y2419D01*
X3304D01*
X3293Y2437D01*
X3253Y2463D01*
X3206Y2472D01*
X3159Y2463D01*
X3119Y2437D01*
X3093Y2397D01*
X3084Y2350D01*
X3093Y2303D01*
X3119Y2263D01*
X3159Y2237D01*
X3206Y2228D01*
X3253Y2237D01*
X3293Y2263D01*
X3304Y2281D01*
X3362D01*
X3373Y2263D01*
X3413Y2237D01*
X3435Y2233D01*
Y2350D01*
X3485D01*
Y2233D01*
X3507Y2237D01*
X3547Y2263D01*
X3558Y2281D01*
X3616D01*
X3627Y2263D01*
X3667Y2237D01*
X3714Y2228D01*
X3761Y2237D01*
X3801Y2263D01*
X3812Y2281D01*
X3870D01*
X3881Y2263D01*
X3921Y2237D01*
X3968Y2228D01*
X4015Y2237D01*
X4055Y2263D01*
X4056Y2265D01*
X4111Y2269D01*
X4140Y2238D01*
Y1556D01*
X4121Y1536D01*
X4115Y1535D01*
X4085Y1515D01*
X4065Y1485D01*
X4064Y1479D01*
X3966Y1382D01*
X3547D01*
X3535Y1400D01*
X3562Y1450D01*
X3670D01*
X3680Y1450D01*
X3720D01*
X3730Y1450D01*
X3775D01*
Y1550D01*
Y1650D01*
X3730D01*
X3720Y1650D01*
X3680D01*
X3670Y1650D01*
X3520D01*
X3520Y1650D01*
X3470Y1628D01*
X3460Y1635D01*
X3425Y1642D01*
X3396Y1636D01*
X3384Y1638D01*
X3368Y1648D01*
X3355Y1708D01*
X3360Y1715D01*
X3367Y1750D01*
X3360Y1785D01*
X3340Y1815D01*
X3310Y1835D01*
X3275Y1842D01*
X3240Y1835D01*
X3210Y1815D01*
X3190Y1785D01*
X3183Y1750D01*
X3187Y1731D01*
X3136Y1679D01*
X3121Y1645D01*
Y1520D01*
X3136Y1486D01*
X3166Y1455D01*
Y1200D01*
X3181Y1166D01*
X3226Y1120D01*
Y776D01*
X3210Y765D01*
X3190Y735D01*
X3183Y700D01*
X3190Y665D01*
X3210Y635D01*
X3215Y632D01*
X3236Y593D01*
X3232Y566D01*
X3226Y552D01*
Y376D01*
X3210Y365D01*
X3190Y335D01*
X3183Y300D01*
X3190Y265D01*
X3210Y235D01*
X3240Y215D01*
X3275Y208D01*
X3310Y215D01*
X3340Y235D01*
X3360Y265D01*
X3367Y300D01*
X3360Y335D01*
X3340Y365D01*
X3324Y376D01*
Y531D01*
X3414Y622D01*
X3429Y657D01*
Y743D01*
X3414Y778D01*
X3399Y794D01*
Y1150D01*
X3384Y1184D01*
X3375Y1194D01*
X3407Y1232D01*
X3419Y1225D01*
X3450Y1218D01*
X3618D01*
Y850D01*
X3620Y842D01*
X3615Y835D01*
X3608Y800D01*
X3615Y765D01*
X3635Y735D01*
X3665Y715D01*
X3700Y708D01*
X3735Y715D01*
X3765Y735D01*
X3785Y765D01*
X3792Y800D01*
X3785Y835D01*
X3780Y842D01*
X3782Y850D01*
Y1218D01*
X4000D01*
X4031Y1225D01*
X4058Y1242D01*
X4179Y1364D01*
X4185Y1365D01*
X4215Y1385D01*
X4219Y1391D01*
X4222Y1390D01*
X4253Y1397D01*
X4280Y1414D01*
X4297Y1441D01*
X4299Y1450D01*
X4370D01*
X4380Y1450D01*
X4420D01*
X4430Y1450D01*
X4475D01*
Y1550D01*
Y1650D01*
X4430D01*
X4420Y1650D01*
X4380D01*
X4370Y1650D01*
X4304D01*
Y2260D01*
X4309Y2263D01*
X4320Y2281D01*
X4378D01*
X4389Y2263D01*
X4429Y2237D01*
X4440Y2235D01*
Y2130D01*
X4400D01*
Y1980D01*
X4400Y1970D01*
Y1930D01*
X4400Y1920D01*
Y1875D01*
X4500D01*
X4600D01*
Y1920D01*
X4600Y1930D01*
Y1970D01*
X4600Y1980D01*
Y2130D01*
X4560D01*
Y2261D01*
X4563Y2263D01*
X4574Y2281D01*
X4632D01*
X4643Y2263D01*
X4683Y2237D01*
X4690Y2236D01*
Y2130D01*
X4650D01*
Y1980D01*
X4650Y1970D01*
Y1930D01*
X4650Y1920D01*
Y1770D01*
X4650D01*
X4658Y1725D01*
X4659Y1724D01*
X4665Y1690D01*
X4685Y1660D01*
X4715Y1640D01*
X4750Y1633D01*
X4785Y1640D01*
X4815Y1660D01*
X4835Y1690D01*
X4841Y1724D01*
X4842Y1725D01*
X4850Y1770D01*
X4850D01*
Y1920D01*
X4850Y1930D01*
Y1970D01*
X4850Y1980D01*
Y2130D01*
X4810D01*
Y2259D01*
X4817Y2263D01*
X4828Y2281D01*
X4886D01*
X4897Y2263D01*
X4937Y2237D01*
X4940Y2236D01*
Y2130D01*
X4900D01*
Y1980D01*
X4900Y1970D01*
Y1930D01*
X4900Y1920D01*
Y1875D01*
X5000D01*
X5100D01*
Y1920D01*
X5100Y1930D01*
Y1970D01*
X5100Y1980D01*
Y2130D01*
X5060D01*
Y2256D01*
X5071Y2263D01*
X5082Y2281D01*
X5140D01*
X5151Y2263D01*
X5190Y2237D01*
Y2130D01*
X5150D01*
Y1980D01*
X5150Y1970D01*
Y1930D01*
X5150Y1920D01*
Y1770D01*
X5190D01*
Y1525D01*
X5146Y1480D01*
X5050D01*
X5050Y1480D01*
X5038Y1483D01*
X5035Y1485D01*
X5000Y1492D01*
X4965Y1485D01*
X4935Y1465D01*
X4915Y1435D01*
X4908Y1400D01*
X4915Y1365D01*
X4935Y1335D01*
X4965Y1315D01*
X5000Y1308D01*
X5013Y1311D01*
X5050Y1270D01*
Y1120D01*
X5250D01*
X5250Y1120D01*
X5262Y1117D01*
X5265Y1115D01*
X5300Y1108D01*
X5335Y1115D01*
X5365Y1135D01*
X5385Y1165D01*
X5392Y1200D01*
X5385Y1235D01*
X5375Y1250D01*
X5394Y1297D01*
X5397Y1300D01*
X5470D01*
X5480Y1300D01*
X5520D01*
X5530Y1300D01*
X5680D01*
Y1337D01*
X5730Y1343D01*
X5735Y1335D01*
X5765Y1315D01*
X5800Y1308D01*
X5835Y1315D01*
X5865Y1335D01*
X5885Y1365D01*
X5892Y1400D01*
X5885Y1435D01*
X5865Y1465D01*
X5835Y1485D01*
X5800Y1492D01*
X5765Y1485D01*
X5735Y1465D01*
X5730Y1457D01*
X5680Y1463D01*
Y1500D01*
X5530D01*
X5520Y1500D01*
X5480D01*
X5470Y1500D01*
X5356D01*
X5320Y1500D01*
X5310Y1546D01*
Y1770D01*
X5350D01*
Y1920D01*
X5350Y1930D01*
Y1970D01*
X5350Y1980D01*
Y2130D01*
X5310D01*
Y2253D01*
X5325Y2263D01*
X5336Y2281D01*
X5394D01*
X5405Y2263D01*
X5445Y2237D01*
X5467Y2233D01*
Y2350D01*
Y2467D01*
X5445Y2463D01*
X5405Y2437D01*
X5394Y2419D01*
X5336D01*
X5325Y2437D01*
X5285Y2463D01*
X5238Y2472D01*
X5191Y2463D01*
X5151Y2437D01*
X5140Y2419D01*
X5082D01*
X5071Y2437D01*
X5031Y2463D01*
X4984Y2472D01*
X4937Y2463D01*
X4897Y2437D01*
X4886Y2419D01*
X4828D01*
X4817Y2437D01*
X4777Y2463D01*
X4730Y2472D01*
X4683Y2463D01*
X4643Y2437D01*
X4632Y2419D01*
X4574D01*
X4563Y2437D01*
X4523Y2463D01*
X4476Y2472D01*
X4429Y2463D01*
X4389Y2437D01*
X4378Y2419D01*
X4320D01*
X4309Y2437D01*
X4269Y2463D01*
X4222Y2472D01*
X4175Y2463D01*
X4135Y2437D01*
X4124Y2419D01*
X4066D01*
X4055Y2437D01*
X4015Y2463D01*
X3968Y2472D01*
X3921Y2463D01*
X3881Y2437D01*
X3880Y2435D01*
X3825Y2431D01*
X3796Y2462D01*
Y2730D01*
X4084Y3018D01*
X4210D01*
X4215Y3015D01*
X4250Y3008D01*
X4285Y3015D01*
X4315Y3035D01*
X4335Y3065D01*
X4342Y3100D01*
X4335Y3135D01*
X4315Y3165D01*
X4285Y3185D01*
X4250Y3192D01*
Y3320D01*
X4250Y3330D01*
Y3370D01*
X4250Y3380D01*
Y3425D01*
X4150D01*
Y3450D01*
X4125D01*
Y3530D01*
X4060D01*
X4050Y3530D01*
X4010Y3553D01*
Y3750D01*
X3992Y3792D01*
X3977Y3807D01*
X3971Y3835D01*
X3968Y3840D01*
X3994Y3890D01*
X4282D01*
X4285Y3885D01*
X4315Y3865D01*
X4350Y3858D01*
X4385Y3865D01*
X4415Y3885D01*
X4435Y3915D01*
X4442Y3950D01*
X4435Y3985D01*
X4415Y4015D01*
X4385Y4035D01*
X4350Y4042D01*
D02*
G37*
G36*
X2075Y4385D02*
X975D01*
X933Y4367D01*
X708Y4142D01*
X690Y4100D01*
Y3600D01*
X708Y3558D01*
X831Y3435D01*
X811Y3385D01*
X786D01*
X774Y3380D01*
X650D01*
Y3230D01*
X650Y3220D01*
Y3180D01*
X650Y3170D01*
Y3020D01*
X690D01*
Y2082D01*
X442D01*
X437Y2091D01*
X419Y2102D01*
Y2160D01*
X437Y2171D01*
X463Y2211D01*
X467Y2233D01*
X350D01*
X233D01*
X237Y2211D01*
X263Y2171D01*
X281Y2160D01*
Y2102D01*
X263Y2091D01*
X237Y2051D01*
X228Y2004D01*
X237Y1957D01*
X262Y1920D01*
X259Y1906D01*
X245Y1870D01*
X230D01*
Y1630D01*
X470D01*
Y1682D01*
X500Y1720D01*
X690D01*
Y1180D01*
X650D01*
Y1160D01*
X600D01*
Y1180D01*
X400D01*
Y1160D01*
X358Y1142D01*
X358Y1142D01*
X158Y942D01*
X140Y900D01*
Y350D01*
X158Y308D01*
X208Y258D01*
X250Y240D01*
Y220D01*
X450D01*
Y240D01*
X500D01*
Y220D01*
X700D01*
Y240D01*
X750D01*
Y220D01*
X950D01*
Y240D01*
X1000D01*
Y220D01*
X1200D01*
Y370D01*
X1200Y380D01*
Y420D01*
X1200Y430D01*
Y580D01*
X1200D01*
X1188Y630D01*
X1192Y650D01*
X1185Y685D01*
X1165Y715D01*
X1135Y735D01*
X1100Y742D01*
X1065Y735D01*
X1035Y715D01*
X1015Y685D01*
X1008Y650D01*
X1012Y630D01*
X1000Y580D01*
X1000D01*
Y430D01*
X1000Y420D01*
Y401D01*
X980Y393D01*
X950Y412D01*
X950Y430D01*
Y580D01*
X950D01*
X938Y630D01*
X942Y650D01*
X935Y685D01*
X915Y715D01*
X885Y735D01*
X850Y742D01*
X815Y735D01*
X785Y715D01*
X765Y685D01*
X758Y650D01*
X762Y630D01*
X750Y580D01*
X750D01*
Y430D01*
X750Y420D01*
Y401D01*
X730Y393D01*
X700Y412D01*
X700Y430D01*
Y580D01*
X700D01*
X688Y630D01*
X692Y650D01*
X685Y685D01*
X665Y715D01*
X635Y735D01*
X600Y742D01*
X565Y735D01*
X535Y715D01*
X515Y685D01*
X508Y650D01*
X512Y630D01*
X500Y580D01*
X500D01*
Y430D01*
X500Y408D01*
X476Y395D01*
X450Y410D01*
Y420D01*
X450D01*
Y580D01*
X450D01*
X438Y630D01*
X442Y650D01*
X435Y685D01*
X415Y715D01*
X385Y735D01*
X350Y742D01*
X315Y735D01*
X310Y731D01*
X260Y758D01*
Y875D01*
X350Y966D01*
X400Y945D01*
Y820D01*
X600D01*
Y970D01*
X600Y980D01*
X600D01*
Y989D01*
X604Y993D01*
X640Y983D01*
X650Y975D01*
Y820D01*
X850D01*
Y970D01*
X850Y980D01*
X850D01*
Y989D01*
X854Y993D01*
X890Y983D01*
X900Y975D01*
Y820D01*
X1100D01*
Y970D01*
X1100Y980D01*
X1100D01*
Y989D01*
X1104Y993D01*
X1140Y983D01*
X1150Y975D01*
Y820D01*
X1350D01*
Y970D01*
X1350Y980D01*
X1350D01*
Y1020D01*
X1350D01*
Y1180D01*
X1150D01*
Y1160D01*
X1100D01*
Y1180D01*
X900D01*
Y1160D01*
X850D01*
Y1180D01*
X810D01*
Y1918D01*
X870D01*
Y1900D01*
X1020D01*
X1030Y1900D01*
X1070D01*
X1080Y1900D01*
X1141D01*
X1160Y1854D01*
X1066Y1759D01*
X1051Y1725D01*
Y1676D01*
X1035Y1665D01*
X1015Y1635D01*
X1008Y1600D01*
X1015Y1565D01*
X1035Y1535D01*
X1065Y1515D01*
X1100Y1508D01*
X1115Y1511D01*
X1139Y1513D01*
X1184Y1487D01*
X1185Y1485D01*
X1215Y1465D01*
X1250Y1458D01*
X1285Y1465D01*
X1315Y1485D01*
X1335Y1515D01*
X1342Y1550D01*
X1335Y1585D01*
X1315Y1615D01*
X1299Y1626D01*
Y1770D01*
X1349Y1821D01*
X1364Y1855D01*
Y2347D01*
X1414Y2367D01*
X1546Y2235D01*
Y2055D01*
X1561Y2021D01*
X2076Y1505D01*
Y1321D01*
X2071Y1316D01*
X2033Y1300D01*
X2012Y1308D01*
X2010Y1310D01*
X1975Y1317D01*
X1940Y1310D01*
X1910Y1290D01*
X1890Y1260D01*
X1883Y1225D01*
X1890Y1190D01*
X1910Y1160D01*
X1903Y1112D01*
X1871Y1080D01*
X1775D01*
Y1009D01*
X1719Y953D01*
X1700Y957D01*
X1659Y949D01*
X1624Y926D01*
X1601Y891D01*
X1593Y850D01*
X1601Y809D01*
X1624Y774D01*
X1659Y751D01*
X1700Y743D01*
X1725Y748D01*
X1775Y720D01*
Y720D01*
X1850D01*
Y800D01*
X1875D01*
Y825D01*
X1975D01*
Y880D01*
X1975Y880D01*
Y920D01*
X1975D01*
X1975Y930D01*
Y1016D01*
X2015Y1056D01*
X2024Y1056D01*
X2065Y1044D01*
Y575D01*
X2021Y530D01*
X1975Y550D01*
Y630D01*
X1900D01*
Y550D01*
X1875D01*
Y525D01*
X1775D01*
Y486D01*
X1762Y472D01*
X1733Y450D01*
X1700Y457D01*
X1659Y449D01*
X1624Y426D01*
X1601Y391D01*
X1593Y350D01*
X1601Y309D01*
X1624Y274D01*
X1659Y251D01*
X1700Y243D01*
X1741Y251D01*
X1753Y259D01*
X1775Y270D01*
X1975D01*
Y271D01*
X2022Y292D01*
X2035Y285D01*
X2035Y285D01*
X2065Y265D01*
X2100Y258D01*
X2135Y265D01*
X2165Y285D01*
X2185Y315D01*
X2192Y350D01*
X2188Y369D01*
X2320Y501D01*
X2430D01*
X2450Y481D01*
X2484Y467D01*
X2591D01*
X2625Y481D01*
X2684Y541D01*
X2692Y559D01*
X2699Y575D01*
X2745Y566D01*
X2745Y552D01*
X2745Y550D01*
Y525D01*
X2800D01*
Y600D01*
X2749D01*
X2745Y600D01*
X2699Y609D01*
X2699Y622D01*
Y930D01*
X2864Y1096D01*
X2879Y1130D01*
Y1220D01*
X2864Y1254D01*
X2807Y1311D01*
X2810Y1315D01*
X2817Y1350D01*
X2810Y1385D01*
X2790Y1415D01*
X2760Y1435D01*
X2725Y1442D01*
X2717Y1440D01*
X2667Y1475D01*
Y1622D01*
X2681Y1625D01*
X2691Y1631D01*
X2721Y1635D01*
X2754Y1618D01*
X2760Y1608D01*
X2790Y1589D01*
X2825Y1582D01*
X2860Y1589D01*
X2890Y1608D01*
X2910Y1638D01*
X2917Y1673D01*
X2910Y1708D01*
X2890Y1738D01*
X2887Y1793D01*
X2994Y1900D01*
X3080D01*
Y2100D01*
X2930D01*
X2920Y2100D01*
Y2100D01*
X2880D01*
Y2100D01*
X2782D01*
Y2600D01*
X2775Y2631D01*
X2758Y2658D01*
X2632Y2784D01*
Y3468D01*
X2710D01*
X2715Y3465D01*
X2750Y3458D01*
X2785Y3465D01*
X2815Y3485D01*
X2835Y3515D01*
X2842Y3550D01*
X2835Y3585D01*
X2815Y3615D01*
X2785Y3635D01*
X2750Y3642D01*
X2715Y3635D01*
X2710Y3632D01*
X2369D01*
X2285Y3715D01*
X2286Y3735D01*
X2294Y3761D01*
X2305Y3773D01*
X2330Y3783D01*
X2437Y3890D01*
X2882D01*
X2885Y3885D01*
X2915Y3865D01*
X2950Y3858D01*
X2985Y3865D01*
X3015Y3885D01*
X3035Y3915D01*
X3042Y3950D01*
X3035Y3985D01*
X3015Y4015D01*
X2985Y4035D01*
X2950Y4042D01*
X2915Y4035D01*
X2885Y4015D01*
X2882Y4010D01*
X2413D01*
X2382Y3997D01*
X2367Y3993D01*
X2318Y4010D01*
X2315Y4015D01*
X2304Y4022D01*
X2304Y4078D01*
X2315Y4085D01*
X2335Y4115D01*
X2342Y4150D01*
X2335Y4185D01*
X2315Y4215D01*
X2285Y4235D01*
X2250Y4242D01*
X2244Y4241D01*
X2117Y4367D01*
X2075Y4385D01*
D02*
G37*
G36*
X4175Y3530D02*
Y3475D01*
X4250D01*
Y3530D01*
X4175D01*
D02*
G37*
G36*
X3725D02*
X3650D01*
Y3475D01*
X3725D01*
Y3530D01*
D02*
G37*
G36*
X5850Y3742D02*
X5815Y3735D01*
X5785Y3715D01*
X5765Y3685D01*
X5758Y3650D01*
X5765Y3615D01*
X5785Y3585D01*
X5815Y3565D01*
X5850Y3558D01*
X5863Y3561D01*
X5900Y3520D01*
Y3380D01*
X5863Y3339D01*
X5850Y3342D01*
X5815Y3335D01*
X5785Y3315D01*
X5782Y3310D01*
X4525D01*
X4491Y3344D01*
X4492Y3350D01*
X4485Y3385D01*
X4465Y3415D01*
X4435Y3435D01*
X4400Y3442D01*
X4365Y3435D01*
X4335Y3415D01*
X4315Y3385D01*
X4308Y3350D01*
X4315Y3315D01*
X4335Y3285D01*
X4365Y3265D01*
X4400Y3258D01*
X4406Y3259D01*
X4458Y3208D01*
X4500Y3190D01*
X5782D01*
X5785Y3185D01*
X5815Y3165D01*
X5850Y3158D01*
X5885Y3165D01*
X5890Y3169D01*
X5940Y3142D01*
Y2930D01*
X5900D01*
Y2910D01*
X5850D01*
X5808Y2892D01*
X5625Y2710D01*
X5368D01*
X5365Y2715D01*
X5335Y2735D01*
X5300Y2742D01*
X5265Y2735D01*
X5235Y2715D01*
X5215Y2685D01*
X5208Y2650D01*
X5215Y2615D01*
X5235Y2585D01*
X5265Y2565D01*
X5300Y2558D01*
X5335Y2565D01*
X5365Y2585D01*
X5368Y2590D01*
X5650D01*
X5692Y2608D01*
X5712Y2628D01*
X5764Y2615D01*
X5767Y2612D01*
X5785Y2585D01*
X5815Y2565D01*
X5850Y2558D01*
X5885Y2565D01*
X5900Y2570D01*
X5900Y2570D01*
X5900Y2570D01*
X6100D01*
Y2730D01*
X6100D01*
Y2770D01*
X6100D01*
Y2930D01*
X6060D01*
Y3370D01*
X6100D01*
Y3520D01*
X6100Y3530D01*
Y3570D01*
X6100Y3580D01*
Y3730D01*
X5900D01*
X5900Y3730D01*
X5888Y3733D01*
X5885Y3735D01*
X5850Y3742D01*
D02*
G37*
G36*
X5746Y2472D02*
X5699Y2463D01*
X5659Y2437D01*
X5648Y2419D01*
X5590D01*
X5579Y2437D01*
X5539Y2463D01*
X5517Y2467D01*
Y2350D01*
Y2233D01*
X5539Y2237D01*
X5579Y2263D01*
X5590Y2281D01*
X5648D01*
X5659Y2263D01*
X5699Y2237D01*
X5746Y2228D01*
X5793Y2237D01*
X5830Y2262D01*
X5844Y2259D01*
X5880Y2245D01*
Y2230D01*
X6120D01*
Y2470D01*
X5880D01*
Y2455D01*
X5844Y2441D01*
X5830Y2438D01*
X5793Y2463D01*
X5746Y2472D01*
D02*
G37*
G36*
X350Y3142D02*
X303Y3133D01*
X263Y3107D01*
X237Y3067D01*
X228Y3020D01*
X237Y2973D01*
X263Y2933D01*
X281Y2922D01*
Y2864D01*
X263Y2853D01*
X237Y2813D01*
X228Y2766D01*
X237Y2719D01*
X263Y2679D01*
X281Y2668D01*
Y2610D01*
X263Y2599D01*
X237Y2559D01*
X228Y2512D01*
X237Y2465D01*
X263Y2425D01*
X281Y2414D01*
Y2356D01*
X263Y2345D01*
X237Y2305D01*
X233Y2283D01*
X350D01*
X467D01*
X463Y2305D01*
X437Y2345D01*
X419Y2356D01*
Y2414D01*
X437Y2425D01*
X463Y2465D01*
X472Y2512D01*
X463Y2559D01*
X437Y2599D01*
X419Y2610D01*
Y2668D01*
X437Y2679D01*
X463Y2719D01*
X472Y2766D01*
X463Y2813D01*
X437Y2853D01*
X419Y2864D01*
Y2922D01*
X437Y2933D01*
X463Y2973D01*
X472Y3020D01*
X463Y3067D01*
X437Y3107D01*
X397Y3133D01*
X350Y3142D01*
D02*
G37*
G36*
X5100Y1825D02*
X5025D01*
Y1770D01*
X5100D01*
Y1825D01*
D02*
G37*
G36*
X4975D02*
X4900D01*
Y1770D01*
X4975D01*
Y1825D01*
D02*
G37*
G36*
X4600D02*
X4525D01*
Y1770D01*
X4600D01*
Y1825D01*
D02*
G37*
G36*
X4475D02*
X4400D01*
Y1770D01*
X4475D01*
Y1825D01*
D02*
G37*
G36*
X4525Y1650D02*
Y1575D01*
X4580D01*
Y1650D01*
X4525D01*
D02*
G37*
G36*
X3825D02*
Y1575D01*
X3880D01*
Y1650D01*
X3825D01*
D02*
G37*
G36*
X4580Y1525D02*
X4525D01*
Y1450D01*
X4580D01*
Y1525D01*
D02*
G37*
G36*
X3880D02*
X3825D01*
Y1450D01*
X3880D01*
Y1525D01*
D02*
G37*
G36*
X1975Y775D02*
X1900D01*
Y720D01*
X1975D01*
Y775D01*
D02*
G37*
G36*
X4600Y842D02*
X4565Y835D01*
X4535Y815D01*
X4515Y785D01*
X4508Y750D01*
X4515Y715D01*
X4535Y685D01*
X4565Y665D01*
X4600Y658D01*
X4635Y665D01*
X4665Y685D01*
X4685Y715D01*
X4692Y750D01*
X4685Y785D01*
X4665Y815D01*
X4635Y835D01*
X4600Y842D01*
D02*
G37*
G36*
X2945Y600D02*
X2905D01*
X2895Y600D01*
X2850D01*
Y500D01*
Y400D01*
X2887D01*
X2919Y383D01*
X2936Y363D01*
X2940Y340D01*
X2960Y310D01*
X2990Y290D01*
X3025Y283D01*
X3060Y290D01*
X3090Y310D01*
X3110Y340D01*
X3117Y375D01*
X3110Y410D01*
X3105Y417D01*
Y600D01*
X2955D01*
X2945Y600D01*
D02*
G37*
G36*
X1850Y630D02*
X1775D01*
Y575D01*
X1850D01*
Y630D01*
D02*
G37*
G36*
X2800Y475D02*
X2745D01*
Y400D01*
X2800D01*
Y475D01*
D02*
G37*
%LPD*%
G36*
X1869Y3990D02*
X1865Y3985D01*
X1858Y3950D01*
X1865Y3915D01*
X1878Y3896D01*
Y3785D01*
X1831Y3777D01*
X1786D01*
X1785Y3785D01*
X1765Y3815D01*
X1735Y3835D01*
X1700Y3842D01*
X1665Y3835D01*
X1635Y3815D01*
X1615Y3785D01*
X1608Y3750D01*
X1615Y3715D01*
X1635Y3685D01*
X1646Y3678D01*
Y3615D01*
X1466Y3434D01*
X1451Y3400D01*
Y2955D01*
X1401Y2917D01*
X1400Y2917D01*
X1384Y2914D01*
X1341Y2940D01*
X1334Y2949D01*
Y3140D01*
X1319Y3174D01*
X1135Y3359D01*
X1122Y3403D01*
X1122D01*
Y3523D01*
X1122D01*
Y3531D01*
X1122D01*
Y3650D01*
X1160Y3675D01*
X1244Y3760D01*
X1262Y3802D01*
Y3978D01*
X1292Y4008D01*
X1299Y4024D01*
X1315Y4035D01*
X1318Y4040D01*
X1842D01*
X1869Y3990D01*
D02*
G37*
G36*
X912Y3223D02*
Y3192D01*
X912Y3150D01*
X912D01*
Y3142D01*
X912D01*
Y3065D01*
X912Y3023D01*
X912D01*
Y3015D01*
X912D01*
Y2895D01*
X979D01*
X989Y2885D01*
X1012Y2845D01*
X1008Y2825D01*
X1015Y2790D01*
X1035Y2760D01*
X1065Y2740D01*
X1100Y2733D01*
X1126Y2738D01*
X1147Y2733D01*
X1182Y2711D01*
X1191Y2691D01*
X1206Y2675D01*
Y2100D01*
X1175D01*
Y2000D01*
X1125D01*
Y2100D01*
X1080D01*
X1039Y2137D01*
X1042Y2150D01*
X1035Y2185D01*
X1015Y2215D01*
X985Y2235D01*
X950Y2242D01*
X915Y2235D01*
X885Y2215D01*
X865Y2185D01*
X860Y2157D01*
X810Y2161D01*
Y3020D01*
X850D01*
Y3170D01*
X850Y3180D01*
Y3220D01*
X850Y3230D01*
Y3242D01*
X862Y3250D01*
X912Y3223D01*
D02*
G37*
G36*
X2341Y3190D02*
Y2610D01*
X2356Y2576D01*
X2412Y2519D01*
X2408Y2500D01*
X2415Y2465D01*
X2435Y2435D01*
X2465Y2415D01*
X2495Y2409D01*
X2506Y2390D01*
X2517Y2361D01*
X2394Y2238D01*
X2375Y2242D01*
X2340Y2235D01*
X2310Y2215D01*
X2290Y2185D01*
X2283Y2150D01*
X2290Y2115D01*
X2310Y2085D01*
X2340Y2065D01*
X2375Y2058D01*
X2410Y2065D01*
X2440Y2085D01*
X2460Y2115D01*
X2467Y2150D01*
X2463Y2169D01*
X2572Y2278D01*
X2618Y2259D01*
Y2000D01*
Y1980D01*
X2575D01*
Y1900D01*
X2525D01*
Y1980D01*
X2450D01*
Y1918D01*
X2435Y1906D01*
X2400Y1887D01*
X2375Y1892D01*
X2340Y1885D01*
X2310Y1865D01*
X2290Y1835D01*
X2283Y1800D01*
X2290Y1765D01*
X2310Y1735D01*
X2340Y1715D01*
X2346Y1714D01*
X2417Y1642D01*
X2444Y1625D01*
X2450Y1623D01*
Y1620D01*
X2467D01*
X2475Y1618D01*
X2503D01*
Y1292D01*
X2510Y1261D01*
X2527Y1234D01*
X2664Y1098D01*
X2669Y1037D01*
X2616Y984D01*
X2601Y950D01*
Y740D01*
X2588Y728D01*
X2551Y708D01*
X2528Y713D01*
X2509Y709D01*
X2299Y919D01*
Y1275D01*
X2284Y1309D01*
X2249Y1345D01*
Y1408D01*
X2266Y1421D01*
X2299Y1438D01*
X2325Y1433D01*
X2360Y1440D01*
X2390Y1460D01*
X2410Y1490D01*
X2417Y1525D01*
X2410Y1560D01*
X2390Y1590D01*
X2360Y1610D01*
X2325Y1617D01*
X2306Y1613D01*
X2049Y1870D01*
Y2200D01*
X2034Y2234D01*
X1899Y2370D01*
Y2600D01*
X1925D01*
Y2700D01*
X1950D01*
Y2725D01*
X2030D01*
Y2800D01*
X2067Y2832D01*
X2076D01*
X2111Y2846D01*
X2137Y2872D01*
X2151Y2907D01*
Y3172D01*
X2137Y3207D01*
X2109Y3235D01*
X2108Y3237D01*
X2124Y3285D01*
X2130Y3288D01*
X2243D01*
X2341Y3190D01*
D02*
G37*
%LPC*%
G36*
X2030Y2675D02*
X1975D01*
Y2600D01*
X2030D01*
Y2675D01*
D02*
G37*
%LPD*%
D10*
X3000Y2000D02*
D03*
X2800D02*
D03*
X5600Y1400D02*
D03*
X5400D02*
D03*
X2825Y500D02*
D03*
X3025D02*
D03*
X1150Y2000D02*
D03*
X950D02*
D03*
X1950Y2700D02*
D03*
X1750D02*
D03*
X3800Y1550D02*
D03*
X3600D02*
D03*
X4500D02*
D03*
X4300D02*
D03*
D13*
X750Y3100D02*
D03*
Y3300D02*
D03*
X1100Y500D02*
D03*
Y300D02*
D03*
X850Y500D02*
D03*
Y300D02*
D03*
X600D02*
D03*
Y500D02*
D03*
X350Y300D02*
D03*
Y500D02*
D03*
X500Y1100D02*
D03*
Y900D02*
D03*
X750Y1100D02*
D03*
Y900D02*
D03*
X1000D02*
D03*
Y1100D02*
D03*
X1250Y900D02*
D03*
Y1100D02*
D03*
X5000Y1850D02*
D03*
Y2050D02*
D03*
X3750Y3450D02*
D03*
Y3250D02*
D03*
X4150Y3450D02*
D03*
Y3250D02*
D03*
X2550Y1900D02*
D03*
Y1700D02*
D03*
X1875Y550D02*
D03*
Y350D02*
D03*
Y800D02*
D03*
Y1000D02*
D03*
X5150Y1400D02*
D03*
Y1200D02*
D03*
X4500Y1850D02*
D03*
Y2050D02*
D03*
X4750D02*
D03*
Y1850D02*
D03*
X5250Y2050D02*
D03*
Y1850D02*
D03*
X6000Y3650D02*
D03*
Y3450D02*
D03*
Y2650D02*
D03*
Y2850D02*
D03*
X600Y1800D02*
D03*
Y2000D02*
D03*
D14*
X3300Y2750D02*
D03*
X3600D02*
D03*
D16*
X1017Y2956D02*
D03*
Y3083D02*
D03*
Y3210D02*
D03*
Y3337D02*
D03*
Y3463D02*
D03*
Y3590D02*
D03*
Y3717D02*
D03*
X1983D02*
D03*
Y3590D02*
D03*
Y3463D02*
D03*
Y3337D02*
D03*
Y3210D02*
D03*
Y3083D02*
D03*
Y2956D02*
D03*
X1017Y3844D02*
D03*
X1983D02*
D03*
D17*
X2151Y2151D02*
X2187D01*
X2438Y1900D01*
X2550D01*
X2700Y2000D02*
X2800D01*
X5150Y1400D02*
X5250Y1500D01*
Y1850D01*
X5150Y1400D02*
X5400D01*
X750Y2000D02*
Y3100D01*
X2250Y2850D02*
Y3200D01*
X3450Y2900D02*
X3650Y3100D01*
X3450Y2550D02*
Y2900D01*
X3450Y2550D02*
X3450D01*
X3450D02*
X3450Y2550D01*
X750Y1100D02*
Y2000D01*
X950Y2050D02*
Y2150D01*
X1150Y2050D02*
Y2150D01*
Y2050D02*
X1150Y2050D01*
X4550Y1550D02*
X4650Y1450D01*
X3300Y2750D02*
Y2900D01*
X1202Y3802D02*
Y4002D01*
X1118Y3717D02*
X1202Y3802D01*
X2200Y3825D02*
X2288D01*
X2100Y3925D02*
X2200Y3825D01*
X2288D02*
X2413Y3950D01*
X1250Y4100D02*
X1250Y4100D01*
X2413Y3950D02*
X2950D01*
X1983Y3844D02*
Y3917D01*
X1950Y3950D02*
X1983Y3917D01*
X1875Y550D02*
Y800D01*
X2000D01*
X1950Y350D02*
Y375D01*
X2125Y550D02*
Y1225D01*
X1950Y375D02*
X2125Y550D01*
X1875Y350D02*
X1950D01*
X1700D02*
X1875D01*
X1975Y1100D02*
Y1225D01*
X1875Y1000D02*
X1975Y1100D01*
X1850Y1000D02*
X1875D01*
X1700Y850D02*
X1850Y1000D01*
X2825Y375D02*
Y500D01*
X3800Y1550D02*
X3975D01*
X3425D02*
X3600D01*
X4500Y2050D02*
Y2326D01*
X4476Y2350D02*
X4500Y2326D01*
X4750Y2050D02*
Y2330D01*
X4730Y2350D02*
X4750Y2330D01*
X5000Y2050D02*
Y2334D01*
X4984Y2350D02*
X5000Y2334D01*
X5250Y2050D02*
Y2338D01*
X5238Y2350D02*
X5250Y2338D01*
X4250Y1550D02*
X4300D01*
X4500D02*
X4550D01*
X5000Y1400D02*
X5150D01*
Y1200D02*
X5300D01*
X3700Y2336D02*
X3714Y2350D01*
X1756Y2956D02*
X1983D01*
X1750Y3100D02*
X1767Y3083D01*
X1983D01*
X1750Y2950D02*
X1756Y2956D01*
X1750Y2925D02*
Y2950D01*
X1017Y3717D02*
X1118D01*
X910Y3590D02*
X1017D01*
X850Y3650D02*
X910Y3590D01*
X886Y3463D02*
X1017D01*
X750Y3600D02*
X886Y3463D01*
X1733Y3717D02*
X1983D01*
X1700Y3750D02*
X1733Y3717D01*
X1714Y3463D02*
X1983D01*
X1700Y3450D02*
X1714Y3463D01*
X4150Y3200D02*
X4250Y3100D01*
X4150Y3200D02*
Y3250D01*
X3700Y3450D02*
X3750D01*
X3650Y3150D02*
X3750Y3250D01*
X3650Y3100D02*
Y3150D01*
Y3500D02*
X3700Y3450D01*
X3650Y3500D02*
Y3550D01*
X3950Y3250D02*
Y3750D01*
X3900Y3800D02*
X3950Y3750D01*
X3887Y3800D02*
X3900D01*
X5850Y3650D02*
X6000D01*
X5850Y2650D02*
X6000D01*
X4400Y3350D02*
X4500Y3250D01*
X4500D02*
X5850D01*
X5300Y2650D02*
X5650D01*
X5850Y2850D01*
X6000D01*
Y3450D01*
X4222Y1522D02*
X4250Y1550D01*
X750Y3600D02*
Y4100D01*
X850Y3650D02*
Y4050D01*
X1017Y3844D02*
Y4017D01*
X1100Y4100D01*
X1250Y4050D02*
Y4100D01*
X1202Y4002D02*
X1250Y4050D01*
X4750Y1725D02*
Y1850D01*
X1750Y2700D02*
Y2925D01*
X3650Y3800D02*
X3700D01*
X3850Y3950D01*
X4350D01*
X1100Y500D02*
Y650D01*
X850Y500D02*
Y650D01*
X600Y500D02*
Y650D01*
X350Y500D02*
Y650D01*
Y300D02*
X600D01*
X850D01*
X1100D01*
X250D02*
X350D01*
X200Y350D02*
X250Y300D01*
X500Y1100D02*
X750D01*
X1000D01*
X1250D01*
X200Y350D02*
Y900D01*
X400Y1100D01*
X400D02*
X400D01*
X500D01*
X400Y1800D02*
X600D01*
X350Y1750D02*
X400Y1800D01*
X850Y4050D02*
X1025Y4225D01*
X2000D01*
X2025Y4200D01*
X1250Y4100D02*
X2000D01*
X2100Y4000D01*
Y3925D02*
Y4000D01*
X2025Y4200D02*
X2250Y3975D01*
Y3950D02*
Y3975D01*
X750Y4100D02*
X975Y4325D01*
X2075D01*
X2250Y4150D01*
D18*
X2000Y1850D02*
X2325Y1525D01*
X2000Y1850D02*
Y2200D01*
X2200Y1325D02*
Y1550D01*
X1875Y1875D02*
X2200Y1550D01*
X1875Y1875D02*
Y2150D01*
X2375D02*
X2605Y2380D01*
X2250Y898D02*
Y1275D01*
X2200Y1325D02*
X2250Y1275D01*
X3000Y1975D02*
Y2000D01*
X2825Y1800D02*
X3000Y1975D01*
X2825Y1673D02*
Y1800D01*
X3170Y1645D02*
X3275Y1750D01*
X3170Y1520D02*
Y1645D01*
X5600Y1400D02*
X5800D01*
X786Y3337D02*
X1017D01*
X750Y3300D02*
X786Y3337D01*
X2830Y1130D02*
Y1220D01*
X2650Y950D02*
X2830Y1130D01*
X2650Y575D02*
Y950D01*
X2591Y516D02*
X2650Y575D01*
X2484Y516D02*
X2591D01*
X2450Y550D02*
X2484Y516D01*
X2300Y550D02*
X2450D01*
X2100Y350D02*
X2300Y550D01*
X2250Y898D02*
X2528Y621D01*
X2725Y1325D02*
X2830Y1220D01*
X2725Y1325D02*
Y1350D01*
X2066Y3210D02*
X2103Y3172D01*
X2390Y2610D02*
Y3210D01*
X2264Y3337D02*
X2390Y3210D01*
X1983Y3337D02*
X2264D01*
X1850Y2350D02*
X2000Y2200D01*
X1850Y2350D02*
Y2800D01*
X1565Y2460D02*
X1875Y2150D01*
X1850Y2800D02*
X1931Y2881D01*
X2076D01*
X2103Y2907D01*
Y3172D01*
X1100Y2825D02*
X1137Y2862D01*
Y3038D01*
X1093Y3083D02*
X1137Y3038D01*
X1017Y3083D02*
X1093D01*
X1089Y3337D02*
X1285Y3140D01*
Y2765D02*
Y3140D01*
Y2765D02*
X1315Y2735D01*
X1090Y3210D02*
X1225Y3075D01*
Y2725D02*
Y3075D01*
Y2725D02*
X1255Y2695D01*
Y1880D02*
Y2695D01*
X1315Y1855D02*
Y2735D01*
X1017Y3337D02*
X1089D01*
X1250Y1790D02*
X1315Y1855D01*
X1250Y1550D02*
Y1790D01*
X1017Y3210D02*
X1090D01*
X1100Y1725D02*
X1255Y1880D01*
X1100Y1600D02*
Y1725D01*
X1400Y2450D02*
Y2825D01*
Y2450D02*
X1400Y2450D01*
X1595Y2255D01*
X1625Y2550D02*
Y2975D01*
X1565Y2460D02*
Y3315D01*
X1500Y2898D02*
X1505Y2893D01*
Y2757D02*
Y2893D01*
X1500Y2752D02*
X1505Y2757D01*
X1500Y2898D02*
Y3400D01*
Y2440D02*
Y2752D01*
X1983Y3210D02*
X2066D01*
X1595Y2055D02*
Y2255D01*
Y2055D02*
X2125Y1525D01*
X1500Y3400D02*
X1695Y3595D01*
X1500Y2440D02*
X1700Y2240D01*
X1565Y3315D02*
X1700Y3450D01*
X1625Y2975D02*
X1750Y3100D01*
X1625Y2550D02*
X1675Y2500D01*
X1700Y2150D02*
Y2240D01*
X2605Y2380D02*
Y2545D01*
X2450Y2700D02*
X2605Y2545D01*
X2390Y2610D02*
X2500Y2500D01*
X2450Y2700D02*
Y3250D01*
X2425Y3275D02*
X2450Y3250D01*
X2125Y1225D02*
Y1525D01*
X1695Y3745D02*
X1700Y3750D01*
X1695Y3595D02*
Y3745D01*
X1836Y3337D02*
X1983D01*
X1800Y3300D02*
X1836Y3337D01*
X2109Y3590D02*
X2425Y3275D01*
X1983Y3590D02*
X2109D01*
X1809D02*
X1983D01*
X1800Y3600D02*
X1809Y3590D01*
X2425Y3275D02*
Y3275D01*
X3275Y300D02*
Y552D01*
X3350Y773D02*
Y1150D01*
Y773D02*
X3380Y743D01*
Y657D02*
Y743D01*
X3275Y552D02*
X3380Y657D01*
X3275Y1225D02*
X3350Y1150D01*
X3275Y700D02*
Y1140D01*
X3215Y1200D02*
X3275Y1140D01*
X3215Y1200D02*
Y1475D01*
X3170Y1520D02*
X3215Y1475D01*
X3275Y1225D02*
Y1575D01*
D19*
X2475Y1700D02*
X2550D01*
X2375Y1800D02*
X2475Y1700D01*
X2700Y2000D02*
Y2600D01*
Y1750D02*
Y2000D01*
X600D02*
X750D01*
X354D02*
X600D01*
X2725Y1159D02*
Y1175D01*
X2721Y1156D02*
X2725Y1159D01*
X2585Y1292D02*
X2721Y1156D01*
X2550Y3550D02*
X2750D01*
X2550Y2750D02*
Y3550D01*
Y2750D02*
X2700Y2600D01*
X2650Y1700D02*
X2700Y1750D01*
X2585Y1292D02*
Y1665D01*
X2550Y1700D02*
X2585Y1665D01*
X2550Y1700D02*
X2650D01*
X750Y2000D02*
X950D01*
X350Y2004D02*
X354Y2000D01*
X3700Y1300D02*
X4000D01*
X3450D02*
X3700D01*
Y850D02*
Y1300D01*
X3714Y2350D02*
Y2764D01*
X3614D02*
X3714D01*
X4050Y3100D02*
X4250D01*
X3714Y2764D02*
X4050Y3100D01*
X3425Y1325D02*
Y1550D01*
Y1325D02*
X3450Y1300D01*
X4000D02*
X4150Y1450D01*
X2185Y3700D02*
X2335Y3550D01*
X2750D01*
X4150Y1450D02*
X4222Y1522D01*
Y1472D02*
Y2350D01*
D21*
X0Y0D02*
Y4500D01*
X6300D01*
Y0D02*
Y4500D01*
X0Y0D02*
X6300D01*
D22*
X350Y1750D02*
D03*
D23*
Y2004D02*
D03*
Y2258D02*
D03*
Y2512D02*
D03*
Y2766D02*
D03*
Y3020D02*
D03*
X5746Y2350D02*
D03*
X5492D02*
D03*
X5238D02*
D03*
X4984D02*
D03*
X4730D02*
D03*
X3968D02*
D03*
X4222D02*
D03*
X4476D02*
D03*
X3206D02*
D03*
X3460D02*
D03*
X3714D02*
D03*
D24*
X1700Y850D02*
D03*
Y350D02*
D03*
D25*
X6000Y2350D02*
D03*
D26*
X3100Y1100D02*
D03*
X2375Y1800D02*
D03*
X2325Y1525D02*
D03*
X2375Y2150D02*
D03*
X900Y2825D02*
D03*
X2825Y1673D02*
D03*
X3275Y1750D02*
D03*
X5800Y1400D02*
D03*
X1300Y3350D02*
D03*
X2900Y2700D02*
D03*
X3350Y2000D02*
D03*
X4900Y150D02*
D03*
X1700D02*
D03*
X4850Y4350D02*
D03*
X2800D02*
D03*
X250Y150D02*
D03*
Y4350D02*
D03*
X6050Y150D02*
D03*
Y4350D02*
D03*
X2250Y3200D02*
D03*
X1100Y2825D02*
D03*
X1400Y2825D02*
D03*
X1675Y2500D02*
D03*
X2500D02*
D03*
X3450Y2550D02*
D03*
X2528Y621D02*
D03*
X2725Y1175D02*
D03*
Y1350D02*
D03*
X950Y2150D02*
D03*
X1150D02*
D03*
X4650Y1450D02*
D03*
X3700Y800D02*
D03*
X3300Y2900D02*
D03*
X1250Y1550D02*
D03*
X1100Y1600D02*
D03*
X1700Y2150D02*
D03*
X1875D02*
D03*
X2950Y3950D02*
D03*
X1950D02*
D03*
X1850Y1525D02*
D03*
X2825Y375D02*
D03*
X3025D02*
D03*
X3275Y700D02*
D03*
Y300D02*
D03*
Y1575D02*
D03*
X3975Y1550D02*
D03*
X3425D02*
D03*
X2000Y800D02*
D03*
X2100Y350D02*
D03*
X2125Y1225D02*
D03*
X1975D02*
D03*
X4150Y1450D02*
D03*
X5000Y1400D02*
D03*
X5300Y1200D02*
D03*
X4600Y750D02*
D03*
X1750Y3100D02*
D03*
Y2925D02*
D03*
X1250Y4100D02*
D03*
X2250Y3950D02*
D03*
X2250Y4150D02*
D03*
X1800Y3300D02*
D03*
X1700Y3450D02*
D03*
X1800Y3600D02*
D03*
X1700Y3750D02*
D03*
X2185Y3700D02*
D03*
X2750Y3550D02*
D03*
X4350Y3950D02*
D03*
X4250Y3100D02*
D03*
X3650D02*
D03*
Y3550D02*
D03*
X3950Y3250D02*
D03*
X3887Y3800D02*
D03*
X5850Y3650D02*
D03*
Y2650D02*
D03*
X4400Y3350D02*
D03*
X5850Y3250D02*
D03*
X5300Y2650D02*
D03*
X1350Y3850D02*
D03*
X1100Y4100D02*
D03*
X2151Y2151D02*
D03*
X4750Y1725D02*
D03*
X3650Y3800D02*
D03*
X1100Y650D02*
D03*
X850D02*
D03*
X600D02*
D03*
X350D02*
D03*
X1000Y950D02*
D03*
X750D02*
D03*
X500D02*
D03*
X1250D02*
D03*
X2250Y2950D02*
D03*
X1450Y800D02*
D03*
X1550Y1650D02*
D03*
M02*
