G04 Layer_Physical_Order=2*
G04 Layer_Color=16711680*
%FSLAX42Y42*%
%MOMM*%
G71*
G01*
G75*
%ADD11R,2.00X2.00*%
%ADD13C,2.00*%
%ADD14C,1.00*%
%ADD15C,1.50*%
%ADD16C,0.25*%
%ADD17C,2.00*%
%ADD18C,1.60*%
%ADD19C,1.50*%
%ADD20C,1.80*%
%ADD21R,1.80X1.80*%
%ADD22C,2.50*%
%ADD23R,2.50X2.50*%
%ADD24R,1.50X1.50*%
%ADD25C,1.20*%
%ADD26R,0.80X1.50*%
%ADD27R,1.60X2.50*%
%ADD28R,1.00X1.40*%
%ADD29R,2.00X2.00*%
%ADD30R,2.60X2.50*%
%ADD31R,1.40X1.00*%
%ADD32R,2.40X1.60*%
%ADD33R,2.50X2.00*%
%ADD34C,0.50*%
G36*
X6649Y1950D02*
X6631Y1946D01*
X6588Y1918D01*
X6560Y1875D01*
X6554Y1849D01*
X6682D01*
Y1824D01*
X6707D01*
Y1696D01*
X6733Y1702D01*
X6776Y1730D01*
X6779Y1735D01*
X6839D01*
X6842Y1730D01*
X6885Y1702D01*
X6900Y1648D01*
X6896Y1643D01*
X6893Y1625D01*
X7000D01*
Y1575D01*
X6867D01*
X6847Y1550D01*
X6820D01*
Y1400D01*
X7000D01*
Y1350D01*
X6820D01*
Y1200D01*
X6847D01*
X6867Y1175D01*
X7000D01*
Y1150D01*
X7025D01*
Y1043D01*
X7043Y1046D01*
X7079Y1071D01*
X7098Y1099D01*
X7136Y1095D01*
X7148Y1090D01*
Y942D01*
X7056Y850D01*
X6820D01*
X6820Y850D01*
Y850D01*
X6784Y885D01*
X6747Y922D01*
X6714Y944D01*
X6675Y952D01*
X6450D01*
X6440Y950D01*
X6330D01*
Y950D01*
X6290D01*
Y950D01*
X6075D01*
Y825D01*
Y750D01*
X6090D01*
Y730D01*
X6120Y700D01*
X6290D01*
X6330Y676D01*
Y675D01*
X6450D01*
X6570D01*
Y748D01*
X6633D01*
X6778Y603D01*
X6811Y581D01*
X6820Y579D01*
Y500D01*
X7180D01*
Y573D01*
X7225D01*
X7264Y581D01*
X7297Y603D01*
X7450Y756D01*
X7500Y735D01*
Y450D01*
Y50D01*
X5450D01*
X5450Y353D01*
X5493Y395D01*
X5575D01*
Y525D01*
X5600D01*
Y550D01*
X5770D01*
Y655D01*
X5770D01*
Y676D01*
X5818Y700D01*
X5980D01*
X6010Y730D01*
Y750D01*
X6025D01*
Y825D01*
Y950D01*
X5810D01*
Y950D01*
X5770Y955D01*
Y955D01*
X5762Y955D01*
X5430D01*
X5402Y993D01*
Y1107D01*
X5420Y1150D01*
X5460D01*
Y1150D01*
X5675D01*
Y1275D01*
Y1350D01*
X5660D01*
Y1370D01*
X5630Y1400D01*
X5460D01*
X5420Y1424D01*
Y1425D01*
X5300D01*
X5180D01*
Y1350D01*
X5180D01*
X5180Y1350D01*
X5180Y1300D01*
Y1150D01*
X5198D01*
Y1004D01*
X5150Y962D01*
X5107Y954D01*
X5105Y952D01*
X5045D01*
X5043Y954D01*
X5000Y962D01*
X4957Y954D01*
X4950Y949D01*
X4900Y976D01*
Y1450D01*
X4950Y1500D01*
X5180D01*
Y1475D01*
X5300D01*
X5420D01*
Y1550D01*
X5315D01*
X5296Y1596D01*
X5450Y1750D01*
Y2000D01*
X6644D01*
X6649Y1950D01*
D02*
G37*
G36*
X4957Y746D02*
X5000Y738D01*
X5043Y746D01*
X5045Y748D01*
X5105D01*
X5107Y746D01*
X5150Y738D01*
X5180Y713D01*
Y675D01*
X5300D01*
Y625D01*
X5180D01*
Y600D01*
X4900D01*
Y724D01*
X4949Y751D01*
X4950Y751D01*
X4957Y746D01*
D02*
G37*
%LPC*%
G36*
X6657Y1799D02*
X6554D01*
X6560Y1773D01*
X6588Y1730D01*
X6631Y1702D01*
X6657Y1696D01*
Y1799D01*
D02*
G37*
G36*
X6125Y1705D02*
X5980D01*
Y1600D01*
X6125D01*
Y1705D01*
D02*
G37*
G36*
X6475Y1675D02*
Y1600D01*
X6570D01*
Y1675D01*
X6475D01*
D02*
G37*
G36*
X6320Y1705D02*
X6292Y1705D01*
X6175D01*
Y1575D01*
X6150D01*
Y1550D01*
X5980D01*
Y1455D01*
X5980Y1445D01*
Y1424D01*
X5932Y1400D01*
X5770D01*
X5740Y1370D01*
Y1350D01*
X5725D01*
Y1275D01*
Y1150D01*
X5940D01*
Y1150D01*
X5980Y1145D01*
Y1145D01*
X5988Y1145D01*
X6161D01*
X6178Y1128D01*
X6211Y1106D01*
X6250Y1098D01*
X6355D01*
X6357Y1096D01*
X6400Y1088D01*
X6443Y1096D01*
X6445Y1098D01*
X6505D01*
X6507Y1096D01*
X6550Y1088D01*
X6593Y1096D01*
X6629Y1121D01*
X6654Y1157D01*
X6662Y1200D01*
X6654Y1243D01*
X6629Y1279D01*
X6593Y1304D01*
X6570Y1308D01*
Y1425D01*
X6570Y1475D01*
X6570D01*
Y1475D01*
X6570D01*
Y1550D01*
X6450D01*
Y1575D01*
X6425D01*
Y1675D01*
X6358Y1675D01*
X6320Y1705D01*
D02*
G37*
G36*
X6975Y1125D02*
X6893D01*
X6896Y1107D01*
X6921Y1071D01*
X6957Y1046D01*
X6975Y1043D01*
Y1125D01*
D02*
G37*
G36*
X6570Y625D02*
X6475D01*
Y550D01*
X6570D01*
Y625D01*
D02*
G37*
G36*
X6425D02*
X6330D01*
Y550D01*
X6425D01*
Y625D01*
D02*
G37*
G36*
X5770Y500D02*
X5625D01*
Y395D01*
X5770D01*
Y500D01*
D02*
G37*
G36*
X7190Y433D02*
X7139Y422D01*
X7096Y394D01*
X7093Y389D01*
X7033D01*
X7030Y394D01*
X6987Y422D01*
X6936Y433D01*
X6885Y422D01*
X6842Y394D01*
X6839Y389D01*
X6779D01*
X6776Y394D01*
X6733Y422D01*
X6682Y433D01*
X6631Y422D01*
X6588Y394D01*
X6560Y351D01*
X6549Y300D01*
X6560Y249D01*
X6588Y206D01*
X6631Y178D01*
X6682Y167D01*
X6733Y178D01*
X6776Y206D01*
X6779Y211D01*
X6839D01*
X6842Y206D01*
X6885Y178D01*
X6936Y167D01*
X6987Y178D01*
X7030Y206D01*
X7033Y211D01*
X7093D01*
X7096Y206D01*
X7139Y178D01*
X7190Y167D01*
X7241Y178D01*
X7284Y206D01*
X7312Y249D01*
X7323Y300D01*
X7312Y351D01*
X7284Y394D01*
X7241Y422D01*
X7190Y433D01*
D02*
G37*
%LPD*%
D11*
X3750Y1100D02*
D03*
X4150D02*
D03*
D13*
X2350Y1700D02*
X3750Y300D01*
X2350Y1700D02*
Y2000D01*
D14*
X4250Y4300D02*
X4350Y4200D01*
X3950Y4300D02*
X4250D01*
X1700D02*
Y4350D01*
X1150Y3750D02*
X1700Y4300D01*
X700Y3750D02*
X1150D01*
X4350Y3150D02*
Y3250D01*
X700D02*
X4350D01*
X7250Y900D02*
Y1764D01*
X7025Y675D02*
X7250Y900D01*
X7000Y675D02*
X7025D01*
X5425Y525D02*
X5600D01*
X5300Y650D02*
X5425Y525D01*
X6250Y1200D02*
X6400D01*
X6175Y1275D02*
X6250Y1200D01*
X6150Y1275D02*
X6175D01*
X6450Y1250D02*
Y1375D01*
X6400Y1200D02*
X6450Y1250D01*
X6400Y1200D02*
X6550D01*
X6850Y675D02*
X7000D01*
X6675Y850D02*
X6850Y675D01*
X6450Y850D02*
X6675D01*
X7000Y675D02*
X7225D01*
X7400Y850D01*
Y1900D01*
X7140Y2160D02*
X7400Y1900D01*
X7190Y1824D02*
X7250Y1764D01*
X5000Y850D02*
X5150D01*
X5300D01*
X6200Y825D02*
X6425D01*
X6450Y850D01*
X5850Y1275D02*
X6150D01*
X5325D02*
X5550D01*
X5300Y1250D02*
X5325Y1275D01*
X5300Y850D02*
Y1250D01*
Y850D02*
X5325Y825D01*
X5600D01*
X5900D01*
X5389Y2160D02*
X7140D01*
X5384Y2550D02*
X6146Y3312D01*
X4891Y2550D02*
X5384D01*
X6241Y3138D02*
X6320D01*
X5468Y2365D02*
X6241Y3138D01*
X6140Y3721D02*
X6319Y3900D01*
X6140Y3317D02*
Y3721D01*
Y3317D02*
X6146Y3312D01*
X4706Y2350D02*
Y2365D01*
X4891Y2550D01*
X6319Y3900D02*
X6320D01*
X5468Y2350D02*
Y2365D01*
X5976Y2350D02*
Y2365D01*
X7400Y3789D01*
Y3950D01*
X6230Y2350D02*
Y2380D01*
X7400Y3550D01*
X6484Y2350D02*
Y2365D01*
X7269Y3150D01*
X7400D01*
X6738Y2350D02*
Y2365D01*
X7123Y2750D01*
X7400D01*
X5214Y2335D02*
Y2350D01*
Y2335D02*
X5389Y2160D01*
X8350Y750D02*
X8600D01*
X8350Y1250D02*
X8600D01*
X7400Y2750D02*
X7600D01*
X7400Y3150D02*
X7600D01*
X7400Y3550D02*
X7600D01*
X7400Y3950D02*
X7600D01*
X8400Y2250D02*
X8600D01*
X8225Y2425D02*
X8400Y2250D01*
X8250Y2750D02*
X8600D01*
X8225Y2775D02*
X8250Y2750D01*
X7600D02*
X7650D01*
X7975Y2425D01*
X7600Y3150D02*
X7975Y2775D01*
Y2775D02*
Y2775D01*
X7600Y3550D02*
X7775Y3375D01*
X7975D01*
X7600Y3950D02*
X7750D01*
X7975Y3725D01*
X8225Y3375D02*
X8475D01*
X8600Y3250D01*
X8225Y3725D02*
X8575D01*
X8600Y3750D01*
X5038Y3150D02*
X5050Y3138D01*
X4700Y3150D02*
X5038D01*
X4350Y2800D02*
X4700Y3150D01*
X4350Y2650D02*
Y2800D01*
Y3150D02*
Y3700D01*
X4750Y3900D02*
X5050D01*
X4700Y3850D02*
X4750Y3900D01*
X4700Y3650D02*
Y3850D01*
X4350Y4200D02*
X4700Y3850D01*
D15*
X3800Y2750D02*
X4415Y2135D01*
X700Y2750D02*
X3800D01*
X7000Y1150D02*
Y1600D01*
X4600Y300D02*
X4904D01*
X3750D02*
X4600D01*
X3750Y800D02*
Y1100D01*
X4150D02*
Y1350D01*
X4100Y1400D02*
X4150Y1350D01*
X4904Y1824D02*
X5158D01*
X4795Y2135D02*
X4810Y2150D01*
X4850D01*
X4960Y2260D01*
Y2350D01*
X4904Y300D02*
X5158D01*
X4600D02*
Y450D01*
Y1520D02*
X4904Y1824D01*
X4415Y2135D02*
X4795D01*
X7850Y1650D02*
X8500D01*
X8600Y1750D01*
X8900Y1450D01*
Y650D02*
Y1450D01*
X8600Y350D02*
X8900Y650D01*
X7850Y350D02*
X8600D01*
X3750Y800D02*
X4600D01*
Y1520D01*
Y650D02*
Y800D01*
D16*
X0Y0D02*
X9300D01*
Y4500D01*
X0D02*
X9300D01*
X0Y0D02*
Y4500D01*
D17*
X3950Y4300D02*
D03*
X1700D02*
D03*
D18*
X4904Y300D02*
D03*
X5158D02*
D03*
X7190D02*
D03*
Y1824D02*
D03*
X6682D02*
D03*
Y300D02*
D03*
X5158Y1824D02*
D03*
X4904D02*
D03*
X6936Y300D02*
D03*
Y1824D02*
D03*
X5050Y3900D02*
D03*
Y3646D02*
D03*
Y3392D02*
D03*
Y3138D02*
D03*
X6320D02*
D03*
Y3392D02*
D03*
Y3646D02*
D03*
Y3900D02*
D03*
D19*
X4350Y4200D02*
D03*
Y3700D02*
D03*
Y2650D02*
D03*
Y3150D02*
D03*
X4100Y1900D02*
D03*
Y1400D02*
D03*
X2350Y2000D02*
D03*
X2850D02*
D03*
X3750Y300D02*
D03*
D20*
X5214Y2350D02*
D03*
X4960D02*
D03*
X4706D02*
D03*
X5976D02*
D03*
X5722D02*
D03*
X5468D02*
D03*
X6230D02*
D03*
X6484D02*
D03*
X6738D02*
D03*
X6992D02*
D03*
X7246D02*
D03*
D21*
X7500D02*
D03*
D22*
X8600Y750D02*
D03*
Y1250D02*
D03*
Y1750D02*
D03*
Y2250D02*
D03*
Y3250D02*
D03*
Y2750D02*
D03*
X700Y3750D02*
D03*
Y3250D02*
D03*
Y2750D02*
D03*
Y2250D02*
D03*
Y1250D02*
D03*
Y1750D02*
D03*
D23*
X8600Y3750D02*
D03*
X700Y750D02*
D03*
D24*
X3750Y800D02*
D03*
D25*
X6550Y1200D02*
D03*
X6400D02*
D03*
X7000Y1150D02*
D03*
Y1600D02*
D03*
X5000Y850D02*
D03*
X5150D02*
D03*
X7400Y2750D02*
D03*
Y3150D02*
D03*
Y3550D02*
D03*
Y3950D02*
D03*
D26*
X5700Y1275D02*
D03*
X5550D02*
D03*
X5850D02*
D03*
X6050Y825D02*
D03*
X6200D02*
D03*
X5900D02*
D03*
D27*
X7975Y2425D02*
D03*
X8225D02*
D03*
Y2775D02*
D03*
X7975D02*
D03*
Y3375D02*
D03*
X8225D02*
D03*
Y3725D02*
D03*
X7975D02*
D03*
D28*
X8150Y750D02*
D03*
X8350D02*
D03*
X8150Y1250D02*
D03*
X8350D02*
D03*
D29*
X7850Y1650D02*
D03*
Y1250D02*
D03*
Y350D02*
D03*
Y750D02*
D03*
X7600Y3150D02*
D03*
Y2750D02*
D03*
Y3950D02*
D03*
Y3550D02*
D03*
D30*
X7000Y1375D02*
D03*
Y675D02*
D03*
D31*
X5300Y1450D02*
D03*
Y1250D02*
D03*
X6450Y850D02*
D03*
Y650D02*
D03*
X5300Y850D02*
D03*
Y650D02*
D03*
X6450Y1575D02*
D03*
Y1375D02*
D03*
X4600Y650D02*
D03*
Y450D02*
D03*
D32*
X5600Y825D02*
D03*
Y525D02*
D03*
X6150Y1575D02*
D03*
Y1275D02*
D03*
D33*
X4700Y3150D02*
D03*
Y3650D02*
D03*
D34*
X7550Y950D02*
Y1950D01*
X7246Y2254D02*
X7550Y1950D01*
X7246Y2254D02*
Y2350D01*
X7650Y1300D02*
Y2200D01*
X7500Y2350D02*
X7650Y2200D01*
X7750Y750D02*
X7850D01*
X7650Y1300D02*
X7700Y1250D01*
X7850D01*
X8150D01*
X7850Y750D02*
X8150D01*
X7550Y950D02*
X7750Y750D01*
M02*
