G04 Layer_Color=16711935*
%FSLAX42Y42*%
%MOMM*%
G71*
G01*
G75*
%ADD20C,0.25*%
%ADD28R,1.60X1.20*%
%ADD29R,1.20X1.60*%
%ADD30R,1.70X1.90*%
%ADD32R,1.70X0.80*%
%ADD33R,2.00X2.00*%
%ADD34C,2.00*%
%ADD35C,1.70*%
%ADD36R,2.00X2.00*%
%ADD37C,1.40*%
D20*
X0Y0D02*
Y4500D01*
X6300D01*
Y0D02*
Y4500D01*
X0Y0D02*
X6300D01*
D28*
X1100Y500D02*
D03*
Y300D02*
D03*
X850Y500D02*
D03*
Y300D02*
D03*
X600D02*
D03*
Y500D02*
D03*
X350Y300D02*
D03*
Y500D02*
D03*
X500Y1100D02*
D03*
Y900D02*
D03*
X750Y1100D02*
D03*
Y900D02*
D03*
X1000D02*
D03*
Y1100D02*
D03*
X1250Y900D02*
D03*
Y1100D02*
D03*
X5000Y1850D02*
D03*
Y2050D02*
D03*
X3750Y3450D02*
D03*
Y3250D02*
D03*
X4150Y3450D02*
D03*
Y3250D02*
D03*
X2550Y1900D02*
D03*
Y1700D02*
D03*
X1875Y550D02*
D03*
Y350D02*
D03*
Y800D02*
D03*
Y1000D02*
D03*
X5150Y1400D02*
D03*
Y1200D02*
D03*
X4500Y1850D02*
D03*
Y2050D02*
D03*
X4750D02*
D03*
Y1850D02*
D03*
X5250Y2050D02*
D03*
Y1850D02*
D03*
X6000Y3650D02*
D03*
Y3450D02*
D03*
Y2650D02*
D03*
Y2850D02*
D03*
X600Y1800D02*
D03*
Y2000D02*
D03*
D29*
X2825Y500D02*
D03*
X3025D02*
D03*
X1150Y2000D02*
D03*
X950D02*
D03*
X1950Y2700D02*
D03*
X1750D02*
D03*
X3800Y1550D02*
D03*
X3600D02*
D03*
X4500D02*
D03*
X4300D02*
D03*
D30*
X3300Y2750D02*
D03*
X3600D02*
D03*
D32*
X1017Y2956D02*
D03*
Y3083D02*
D03*
Y3210D02*
D03*
Y3337D02*
D03*
Y3463D02*
D03*
Y3590D02*
D03*
Y3717D02*
D03*
X1983D02*
D03*
Y3590D02*
D03*
Y3463D02*
D03*
Y3337D02*
D03*
Y3210D02*
D03*
Y3083D02*
D03*
Y2956D02*
D03*
X1017Y3844D02*
D03*
X1983D02*
D03*
D33*
X350Y1750D02*
D03*
D34*
Y2004D02*
D03*
Y2258D02*
D03*
Y2512D02*
D03*
Y2766D02*
D03*
Y3020D02*
D03*
X5746Y2350D02*
D03*
X5492D02*
D03*
X5238D02*
D03*
X4984D02*
D03*
X4730D02*
D03*
X3968D02*
D03*
X4222D02*
D03*
X4476D02*
D03*
X3206D02*
D03*
X3460D02*
D03*
X3714D02*
D03*
D35*
X1700Y850D02*
D03*
Y350D02*
D03*
D36*
X6000Y2350D02*
D03*
D37*
X1300Y3350D02*
D03*
X2900Y2700D02*
D03*
X3350Y2000D02*
D03*
X4900Y150D02*
D03*
X1700D02*
D03*
X4850Y4350D02*
D03*
X2800D02*
D03*
X250Y150D02*
D03*
Y4350D02*
D03*
X6050Y150D02*
D03*
Y4350D02*
D03*
X2250Y3200D02*
D03*
X1100Y2825D02*
D03*
X1400Y2825D02*
D03*
X1675Y2500D02*
D03*
X2500D02*
D03*
X3450Y2550D02*
D03*
X2528Y621D02*
D03*
X2725Y1175D02*
D03*
Y1350D02*
D03*
X2305Y1800D02*
D03*
X950Y2150D02*
D03*
X1150D02*
D03*
X4650Y1450D02*
D03*
X3700Y800D02*
D03*
X3300Y2900D02*
D03*
X1250Y1550D02*
D03*
X1100Y1600D02*
D03*
X1700Y2150D02*
D03*
X1875D02*
D03*
X2950Y3950D02*
D03*
X1950D02*
D03*
X2375Y1525D02*
D03*
Y2150D02*
D03*
X1850Y1525D02*
D03*
X2825Y375D02*
D03*
X3025D02*
D03*
X3275Y700D02*
D03*
X3200Y1750D02*
D03*
X3275Y300D02*
D03*
Y1575D02*
D03*
X3975Y1550D02*
D03*
X3425D02*
D03*
X2000Y800D02*
D03*
X2100Y350D02*
D03*
X2125Y1225D02*
D03*
X1975D02*
D03*
X4150Y1450D02*
D03*
X5000Y1400D02*
D03*
X5300Y1200D02*
D03*
X4600Y750D02*
D03*
X1750Y3100D02*
D03*
Y2925D02*
D03*
X1250Y4100D02*
D03*
X2250Y3950D02*
D03*
X2250Y4150D02*
D03*
X1800Y3300D02*
D03*
X1700Y3450D02*
D03*
X1800Y3600D02*
D03*
X1700Y3750D02*
D03*
X2185Y3700D02*
D03*
X2750Y3550D02*
D03*
X4350Y3950D02*
D03*
X4250Y3100D02*
D03*
X3650D02*
D03*
Y3550D02*
D03*
X3950Y3250D02*
D03*
X3887Y3800D02*
D03*
X5850Y3650D02*
D03*
Y2650D02*
D03*
X4400Y3350D02*
D03*
X5850Y3250D02*
D03*
X5300Y2650D02*
D03*
X1350Y3850D02*
D03*
X1100Y4100D02*
D03*
X2151Y2151D02*
D03*
X4750Y1725D02*
D03*
X3650Y3800D02*
D03*
X1100Y650D02*
D03*
X850D02*
D03*
X600D02*
D03*
X350D02*
D03*
X1000Y950D02*
D03*
X750D02*
D03*
X500D02*
D03*
X1250D02*
D03*
X2250Y2950D02*
D03*
X1450Y800D02*
D03*
X3150Y1050D02*
D03*
X1550Y1650D02*
D03*
M02*
