G04 Layer_Color=8388736*
%FSLAX42Y42*%
%MOMM*%
G71*
G01*
G75*
%ADD15C,0.25*%
%ADD22C,1.80*%
%ADD35R,3.70X2.70*%
%ADD36R,2.20X2.20*%
%ADD37C,1.70*%
%ADD38R,1.70X1.70*%
%ADD39C,2.20*%
%ADD40C,2.70*%
%ADD41R,2.70X2.70*%
%ADD42R,2.00X2.00*%
%ADD43C,2.00*%
%ADD44C,1.40*%
D15*
X0Y0D02*
Y4500D01*
X9300D01*
Y0D02*
Y4500D01*
X0Y0D02*
X9300D01*
D22*
X4904Y300D02*
D03*
X5158D02*
D03*
X7190D02*
D03*
Y1824D02*
D03*
X6682D02*
D03*
Y300D02*
D03*
X5158Y1824D02*
D03*
X4904D02*
D03*
X6320Y3900D02*
D03*
Y3646D02*
D03*
Y3392D02*
D03*
Y3138D02*
D03*
X5050D02*
D03*
Y3392D02*
D03*
Y3646D02*
D03*
Y3900D02*
D03*
D35*
X3550Y1300D02*
D03*
Y2050D02*
D03*
D36*
X7200Y3950D02*
D03*
X6800D02*
D03*
Y3550D02*
D03*
X7200D02*
D03*
Y3150D02*
D03*
X6800D02*
D03*
Y2750D02*
D03*
X7200D02*
D03*
D37*
X3750Y300D02*
D03*
X2850Y2050D02*
D03*
X2350D02*
D03*
X4100Y1400D02*
D03*
Y1900D02*
D03*
X4350Y3150D02*
D03*
Y2650D02*
D03*
Y3700D02*
D03*
Y4200D02*
D03*
D38*
X3750Y800D02*
D03*
D39*
X3950Y2850D02*
D03*
X1700D02*
D03*
X3950Y3950D02*
D03*
X1700D02*
D03*
X2850Y1550D02*
D03*
X1850D02*
D03*
X2850Y250D02*
D03*
X1850D02*
D03*
D40*
X700Y1750D02*
D03*
Y1250D02*
D03*
Y2250D02*
D03*
Y2750D02*
D03*
Y3250D02*
D03*
Y3750D02*
D03*
X8600Y2750D02*
D03*
Y3250D02*
D03*
Y2250D02*
D03*
Y1750D02*
D03*
Y1250D02*
D03*
Y750D02*
D03*
D41*
X700D02*
D03*
X8600Y3750D02*
D03*
D42*
X7500Y2350D02*
D03*
D43*
X7246D02*
D03*
X6992D02*
D03*
X6738D02*
D03*
X6484D02*
D03*
X6230D02*
D03*
X5468D02*
D03*
X5722D02*
D03*
X5976D02*
D03*
X4706D02*
D03*
X4960D02*
D03*
X5214D02*
D03*
D44*
X7150Y1150D02*
D03*
X6250Y1100D02*
D03*
X5150Y700D02*
D03*
Y1150D02*
D03*
X5000Y700D02*
D03*
X5300Y1150D02*
D03*
X6750Y900D02*
D03*
X7400Y3950D02*
D03*
Y3550D02*
D03*
Y3150D02*
D03*
Y2750D02*
D03*
X7150Y1600D02*
D03*
M02*
