G04 Layer_Physical_Order=2*
G04 Layer_Color=16711680*
%FSLAX42Y42*%
%MOMM*%
G71*
G01*
G75*
%ADD11R,2.00X2.00*%
%ADD12C,1.50*%
%ADD13C,1.00*%
%ADD14C,2.00*%
%ADD15C,0.25*%
%ADD16C,1.50*%
%ADD17R,1.50X1.50*%
%ADD18C,2.00*%
%ADD19C,2.50*%
%ADD20R,2.50X2.50*%
%ADD21R,1.80X1.80*%
%ADD22C,1.80*%
%ADD23C,1.60*%
%ADD24C,1.20*%
%ADD25R,2.50X2.00*%
%ADD26R,2.00X2.00*%
%ADD27R,2.40X1.60*%
%ADD28R,1.40X1.00*%
%ADD29R,1.50X0.60*%
%ADD30R,2.60X2.50*%
%ADD31R,1.00X1.40*%
%ADD32R,1.60X2.50*%
%ADD33C,0.80*%
%ADD34C,0.50*%
G36*
X6500Y1720D02*
X6361D01*
Y1560D01*
Y1539D01*
X6486D01*
Y1489D01*
X6361D01*
Y1434D01*
Y1411D01*
X6486D01*
Y1361D01*
X6361D01*
Y1306D01*
Y1180D01*
X6439D01*
X6460Y1165D01*
X6495Y1158D01*
X6583D01*
X6630Y1150D01*
Y1075D01*
X6750D01*
Y1025D01*
X6630D01*
Y1013D01*
X6611Y970D01*
X6588Y970D01*
X6361D01*
Y810D01*
Y789D01*
X6486D01*
Y739D01*
X6361D01*
Y684D01*
Y661D01*
X6486D01*
Y611D01*
X6361D01*
Y557D01*
Y430D01*
X6443D01*
X6451Y425D01*
X6486Y418D01*
X6544D01*
X6571Y368D01*
X6560Y351D01*
X6549Y300D01*
X6560Y249D01*
X6588Y206D01*
X6631Y178D01*
X6682Y167D01*
X6733Y178D01*
X6750Y189D01*
X6800Y162D01*
Y50D01*
X5500D01*
Y345D01*
X5770D01*
Y418D01*
X5914D01*
X5949Y425D01*
X5957Y430D01*
X6039D01*
Y557D01*
Y611D01*
X5914D01*
Y661D01*
X6039D01*
Y684D01*
Y739D01*
X5914D01*
Y789D01*
X6039D01*
Y810D01*
Y970D01*
X5789D01*
Y947D01*
X5770Y905D01*
X5625D01*
Y775D01*
X5575D01*
Y905D01*
X5430D01*
X5420Y951D01*
Y1000D01*
X5384D01*
X5377Y1009D01*
X5379Y1071D01*
X5386Y1081D01*
X5430Y1095D01*
Y1095D01*
X5770D01*
Y1168D01*
X5914D01*
X5949Y1175D01*
X5957Y1180D01*
X6039D01*
Y1306D01*
Y1361D01*
X5914D01*
Y1411D01*
X6039D01*
Y1434D01*
Y1489D01*
X5914D01*
Y1539D01*
X6039D01*
Y1560D01*
Y1720D01*
X5789D01*
Y1697D01*
X5770Y1655D01*
X5739Y1655D01*
X5625D01*
Y1525D01*
X5575D01*
Y1655D01*
X5450D01*
Y2050D01*
X6500D01*
Y1720D01*
D02*
G37*
D11*
X4150Y1100D02*
D03*
X3750D02*
D03*
D12*
X1550Y2550D02*
X4000D01*
X1350Y2750D02*
X1550Y2550D01*
X700Y2750D02*
X1350D01*
X4600Y650D02*
Y800D01*
Y1520D01*
X3750Y800D02*
X4600D01*
X7850Y350D02*
X8600D01*
X8900Y650D01*
Y1450D01*
X8600Y1750D02*
X8900Y1450D01*
X8500Y1650D02*
X8600Y1750D01*
X7850Y1650D02*
X8500D01*
X6500Y1050D02*
X6750D01*
X4415Y2135D02*
X4795D01*
X4000Y2550D02*
X4415Y2135D01*
X7150Y1375D02*
Y1600D01*
Y1150D02*
Y1375D01*
X6750Y900D02*
Y1050D01*
Y750D02*
Y900D01*
X4600Y1520D02*
X4904Y1824D01*
X4600Y300D02*
Y450D01*
X4904Y300D02*
X5158D01*
X4960Y2260D02*
Y2350D01*
X4850Y2150D02*
X4960Y2260D01*
X4810Y2150D02*
X4850D01*
X4795Y2135D02*
X4810Y2150D01*
X3750Y300D02*
X4904D01*
Y1824D02*
X5158D01*
X4100Y1400D02*
X4150Y1350D01*
Y1100D02*
Y1350D01*
X3750Y800D02*
Y1100D01*
D13*
X5000Y700D02*
X5300D01*
X6900Y1400D02*
Y2000D01*
X6750Y1250D02*
X6900Y1400D01*
X5300Y700D02*
X5300Y700D01*
X5150Y1150D02*
X5300D01*
X6750Y1250D02*
X6850D01*
X6950Y1150D01*
Y1050D02*
Y1150D01*
Y1050D02*
X7000Y1000D01*
Y800D02*
Y1000D01*
Y800D02*
X7075Y725D01*
X7000Y550D02*
X7025Y575D01*
X7400Y950D02*
Y1614D01*
X7138Y688D02*
X7400Y950D01*
X7190Y1824D02*
X7400Y1614D01*
X700Y3750D02*
X1500D01*
X1700Y3950D01*
X700Y3250D02*
X1300D01*
X1700Y2850D01*
X3950Y3950D02*
X4200Y4200D01*
X4350D01*
X4700Y3850D01*
Y3650D02*
Y3850D01*
X4750Y3900D01*
X5050D01*
X3950Y2850D02*
X4250Y3150D01*
X4350D01*
Y3700D01*
Y2650D02*
Y2800D01*
X4700Y3150D01*
X5038D01*
X5050Y3138D01*
X8575Y3725D02*
X8600Y3750D01*
X8225Y3725D02*
X8575D01*
X8475Y3375D02*
X8600Y3250D01*
X8225Y3375D02*
X8475D01*
X7750Y3950D02*
X7975Y3725D01*
X7600Y3950D02*
X7750D01*
X7775Y3375D02*
X7975D01*
X7600Y3550D02*
X7775Y3375D01*
X7975Y2775D02*
Y2775D01*
X7600Y3150D02*
X7975Y2775D01*
X7650Y2750D02*
X7975Y2425D01*
X7600Y2750D02*
X7650D01*
X8225Y2775D02*
X8250Y2750D01*
X8600D01*
X8225Y2425D02*
X8400Y2250D01*
X8600D01*
X7400Y3950D02*
X7600D01*
X7400Y3550D02*
X7600D01*
X7400Y3150D02*
X7600D01*
X7400Y2750D02*
X7600D01*
X8350Y1250D02*
X8600D01*
X8350Y750D02*
X8600D01*
X5214Y2335D02*
X5389Y2160D01*
X5214Y2335D02*
Y2350D01*
X7123Y2750D02*
X7400D01*
X6738Y2365D02*
X7123Y2750D01*
X6738Y2350D02*
Y2365D01*
X7269Y3150D02*
X7400D01*
X6484Y2365D02*
X7269Y3150D01*
X6484Y2350D02*
Y2365D01*
X6230Y2380D02*
X7400Y3550D01*
X6230Y2350D02*
Y2380D01*
X7400Y3789D02*
Y3950D01*
X5976Y2365D02*
X7400Y3789D01*
X5976Y2350D02*
Y2365D01*
X5468Y2350D02*
Y2365D01*
X6319Y3900D02*
X6320D01*
X4706Y2365D02*
X4891Y2550D01*
X4706Y2350D02*
Y2365D01*
X6140Y3317D02*
X6146Y3312D01*
X6140Y3317D02*
Y3721D01*
X6319Y3900D01*
X5468Y2365D02*
X6241Y3138D01*
X6320D01*
X4891Y2550D02*
X5384D01*
X6146Y3312D01*
X5389Y2160D02*
X6740D01*
X6900Y2000D01*
D14*
X700Y750D02*
X1350D01*
X1850Y250D01*
X2850Y1550D02*
Y2050D01*
X2850Y2050D02*
X2850Y2050D01*
X2350Y750D02*
X2850Y250D01*
X2350Y750D02*
Y2050D01*
X700Y1250D02*
X1550D01*
X1850Y1550D01*
D15*
X0Y0D02*
Y4500D01*
X9300D01*
Y0D02*
Y4500D01*
X0Y0D02*
X9300D01*
D16*
X3750Y300D02*
D03*
X2850Y2050D02*
D03*
X2350D02*
D03*
X4100Y1400D02*
D03*
Y1900D02*
D03*
X4350Y3150D02*
D03*
Y2650D02*
D03*
Y3700D02*
D03*
Y4200D02*
D03*
D17*
X3750Y800D02*
D03*
D18*
X3950Y2850D02*
D03*
X1700D02*
D03*
X3950Y3950D02*
D03*
X1700D02*
D03*
X2850Y1550D02*
D03*
X1850D02*
D03*
X2850Y250D02*
D03*
X1850D02*
D03*
D19*
X700Y1750D02*
D03*
Y1250D02*
D03*
Y2250D02*
D03*
Y2750D02*
D03*
Y3250D02*
D03*
Y3750D02*
D03*
X8600Y2750D02*
D03*
Y3250D02*
D03*
Y2250D02*
D03*
Y1750D02*
D03*
Y1250D02*
D03*
Y750D02*
D03*
D20*
X700D02*
D03*
X8600Y3750D02*
D03*
D21*
X7500Y2350D02*
D03*
D22*
X7246D02*
D03*
X6992D02*
D03*
X6738D02*
D03*
X6484D02*
D03*
X6230D02*
D03*
X5468D02*
D03*
X5722D02*
D03*
X5976D02*
D03*
X4706D02*
D03*
X4960D02*
D03*
X5214D02*
D03*
D23*
X4904Y300D02*
D03*
X5158D02*
D03*
X7190D02*
D03*
Y1824D02*
D03*
X6682D02*
D03*
Y300D02*
D03*
X5158Y1824D02*
D03*
X4904D02*
D03*
X6320Y3900D02*
D03*
Y3646D02*
D03*
Y3392D02*
D03*
Y3138D02*
D03*
X5050D02*
D03*
Y3392D02*
D03*
Y3646D02*
D03*
Y3900D02*
D03*
D24*
X7150Y1150D02*
D03*
X6250Y1100D02*
D03*
X5150Y700D02*
D03*
Y1150D02*
D03*
X5000Y700D02*
D03*
X5300Y1150D02*
D03*
X6750Y900D02*
D03*
X7400Y3950D02*
D03*
Y3550D02*
D03*
Y3150D02*
D03*
Y2750D02*
D03*
X7150Y1600D02*
D03*
D25*
X4700Y3650D02*
D03*
Y3150D02*
D03*
D26*
X7600Y3550D02*
D03*
Y3950D02*
D03*
Y2750D02*
D03*
Y3150D02*
D03*
X7850Y750D02*
D03*
Y350D02*
D03*
Y1250D02*
D03*
Y1650D02*
D03*
D27*
X5600Y1225D02*
D03*
Y1525D02*
D03*
Y775D02*
D03*
Y475D02*
D03*
D28*
X4600Y450D02*
D03*
Y650D02*
D03*
X5300Y1250D02*
D03*
Y1450D02*
D03*
Y900D02*
D03*
Y700D02*
D03*
X6750Y750D02*
D03*
Y550D02*
D03*
Y1250D02*
D03*
Y1050D02*
D03*
D29*
X6486Y1260D02*
D03*
Y1386D02*
D03*
Y1514D02*
D03*
Y1641D02*
D03*
X5914D02*
D03*
Y1514D02*
D03*
Y1386D02*
D03*
Y1260D02*
D03*
Y509D02*
D03*
Y636D02*
D03*
Y764D02*
D03*
Y890D02*
D03*
X6486D02*
D03*
Y764D02*
D03*
Y636D02*
D03*
Y509D02*
D03*
D30*
X7150Y675D02*
D03*
Y1375D02*
D03*
D31*
X8350Y1250D02*
D03*
X8150D02*
D03*
X8350Y750D02*
D03*
X8150D02*
D03*
D32*
X7975Y3725D02*
D03*
X8225D02*
D03*
Y3375D02*
D03*
X7975D02*
D03*
Y2775D02*
D03*
X8225D02*
D03*
Y2425D02*
D03*
X7975D02*
D03*
D33*
X5600Y770D02*
X5907D01*
X5471Y900D02*
X5600Y770D01*
X5300Y900D02*
X5471D01*
X5375Y1525D02*
X5600D01*
X5300Y1450D02*
X5375Y1525D01*
X5914Y639D02*
Y764D01*
X5907Y770D02*
X5914Y764D01*
Y1390D02*
Y1514D01*
X5612D02*
X5914D01*
X5600Y1525D02*
X5612Y1514D01*
X6750Y550D02*
X7000D01*
X5300Y1150D02*
Y1250D01*
Y700D02*
X5525Y475D01*
X5600D01*
X5635Y509D01*
X5914D01*
X5300Y1250D02*
X5575D01*
X5600Y1225D01*
X5635Y1260D01*
X5914D01*
X6710Y509D02*
X6750Y550D01*
X6486Y509D02*
X6710D01*
X6486Y1260D02*
X6495Y1250D01*
X6750D01*
D34*
X7246Y2104D02*
X7550Y1800D01*
Y950D02*
Y1800D01*
Y950D02*
X7750Y750D01*
X7850D02*
X8150D01*
X7850Y1250D02*
X8150D01*
X7700D02*
X7850D01*
X7650Y1300D02*
X7700Y1250D01*
X7650Y1300D02*
Y1950D01*
X7500Y2100D02*
X7650Y1950D01*
X7500Y2100D02*
Y2350D01*
X7750Y750D02*
X7850D01*
X7246Y2104D02*
Y2350D01*
M02*
