G04 Layer_Physical_Order=1*
G04 Layer_Color=255*
%FSLAX42Y42*%
%MOMM*%
G71*
G01*
G75*
%ADD10R,1.60X2.40*%
%ADD11R,0.60X1.50*%
%ADD12R,1.40X1.00*%
%ADD13R,1.00X1.40*%
%ADD14R,1.50X1.70*%
%ADD15R,0.80X0.80*%
%ADD16R,1.50X0.60*%
%ADD17C,1.00*%
%ADD18C,0.50*%
%ADD19C,0.30*%
%ADD20C,0.25*%
%ADD21R,1.80X1.80*%
%ADD22C,1.80*%
%ADD23C,1.50*%
%ADD24R,1.80X1.80*%
%ADD25C,1.20*%
G36*
X2195Y4278D02*
X2181Y4219D01*
X2153Y4150D01*
X2181Y4081D01*
X2191Y4077D01*
Y4023D01*
X2181Y4019D01*
X2153Y3950D01*
X2181Y3881D01*
X2250Y3853D01*
X2319Y3881D01*
X2321Y3887D01*
X2371Y3877D01*
X2371Y3865D01*
X2476D01*
Y3815D01*
X2371D01*
Y3781D01*
X2371Y3731D01*
X2371Y3653D01*
X2371Y3603D01*
X2371Y3526D01*
X2371Y3484D01*
X2476D01*
X2581D01*
Y3519D01*
X2581Y3569D01*
Y3601D01*
X2631Y3627D01*
X2642Y3619D01*
X2650Y3570D01*
X2653Y3550D01*
X2663Y3525D01*
X2663Y3525D01*
X2663Y3524D01*
X2681Y3481D01*
X2750Y3453D01*
X2819Y3481D01*
X2844Y3542D01*
X2848Y3542D01*
X2894D01*
X2908Y3508D01*
X3045Y3371D01*
Y3235D01*
X3255D01*
Y3465D01*
X3137D01*
X3122Y3485D01*
X3146Y3535D01*
X3255D01*
Y3756D01*
X3260Y3769D01*
X3291Y3800D01*
X3309D01*
X3345Y3765D01*
X3345Y3750D01*
Y3535D01*
X3526D01*
X3536Y3514D01*
X3504Y3465D01*
X3345D01*
Y3235D01*
X3555D01*
Y3290D01*
X3662D01*
X3704Y3308D01*
X3725Y3329D01*
X3775Y3308D01*
Y3202D01*
X3753Y3169D01*
X3718D01*
X3650Y3197D01*
X3581Y3169D01*
X3553Y3100D01*
X3581Y3031D01*
X3650Y3003D01*
X3699Y2969D01*
Y2959D01*
X3819D01*
X3819Y2959D01*
X3827D01*
Y2959D01*
X3869Y2959D01*
X3940D01*
X3954Y2912D01*
X3953Y2865D01*
X3895D01*
Y2730D01*
X3849Y2710D01*
X3805Y2754D01*
Y2865D01*
X3595D01*
Y2810D01*
X3475D01*
X3433Y2792D01*
X3164Y2523D01*
X3146Y2481D01*
Y2455D01*
X3114Y2442D01*
X3076Y2350D01*
X3114Y2258D01*
X3206Y2220D01*
X3298Y2258D01*
X3308Y2283D01*
X3358D01*
X3368Y2258D01*
X3435Y2230D01*
Y2350D01*
X3485D01*
Y2230D01*
X3552Y2258D01*
X3562Y2283D01*
X3612D01*
X3622Y2258D01*
X3714Y2220D01*
X3806Y2258D01*
X3816Y2283D01*
X3866D01*
X3876Y2258D01*
X3968Y2220D01*
X4060Y2258D01*
X4112Y2255D01*
X4127Y2236D01*
X4123Y2207D01*
X3975Y2060D01*
X3650D01*
X3608Y2042D01*
X3558Y1992D01*
X3540Y1950D01*
X3520D01*
Y1750D01*
X3530D01*
X3538Y1741D01*
X3514Y1691D01*
X3449D01*
Y1664D01*
X3425Y1647D01*
X3401Y1637D01*
X3344Y1644D01*
X3311Y1658D01*
X3276Y1677D01*
X3284Y1719D01*
X3297Y1750D01*
X3269Y1819D01*
X3200Y1847D01*
X3134Y1820D01*
X2774Y2179D01*
X2740Y2194D01*
X2728D01*
X2685Y2211D01*
Y2421D01*
X2619D01*
X2586Y2471D01*
X2597Y2500D01*
X2569Y2569D01*
X2500Y2597D01*
X2460Y2581D01*
X2410Y2613D01*
Y2625D01*
X2325D01*
Y2500D01*
X2345D01*
X2366Y2452D01*
X2343Y2422D01*
X2305Y2421D01*
Y2421D01*
X2185D01*
X2185Y2421D01*
X2177D01*
Y2421D01*
X2143Y2421D01*
Y2316D01*
X2093D01*
Y2421D01*
X2092D01*
X2066Y2471D01*
X2085Y2500D01*
X2110D01*
Y2800D01*
X1913D01*
X1892Y2850D01*
X2072Y3030D01*
X2329D01*
X2371Y3011D01*
X2371Y2968D01*
Y2892D01*
X2581D01*
Y2968D01*
X2581Y3011D01*
X2581Y3061D01*
X2581Y3138D01*
X2581Y3189D01*
X2581Y3265D01*
X2581Y3307D01*
X2476D01*
X2371D01*
Y3265D01*
X2321Y3263D01*
X2319Y3269D01*
X2275Y3287D01*
Y3200D01*
X2250D01*
Y3175D01*
X2161D01*
X2129Y3127D01*
X2052D01*
X2025Y3116D01*
X1996Y3127D01*
X1975Y3141D01*
Y3675D01*
X2090D01*
X2103Y3663D01*
X2116Y3631D01*
X2185Y3603D01*
X2254Y3631D01*
X2282Y3700D01*
X2254Y3769D01*
X2185Y3797D01*
X2147Y3781D01*
X2115Y3795D01*
X1975D01*
X1968Y3806D01*
X1989Y3869D01*
X2019Y3881D01*
X2047Y3950D01*
X2019Y4019D01*
X2010Y4023D01*
Y4289D01*
X2186D01*
X2195Y4278D01*
D02*
G37*
G36*
X6300Y0D02*
X3558D01*
X3520Y30D01*
X3520Y50D01*
Y75D01*
X3450D01*
X3380D01*
Y50D01*
X3380Y30D01*
X3342Y0D01*
X0D01*
Y4500D01*
X5420D01*
Y4404D01*
X5359Y4343D01*
X5162Y4146D01*
X5144Y4104D01*
X5145Y4101D01*
Y4004D01*
X5100D01*
Y3885D01*
X5100Y3885D01*
Y3877D01*
X5100D01*
X5100Y3835D01*
Y3758D01*
X5100Y3758D01*
Y3750D01*
X5100D01*
X5100Y3708D01*
Y3631D01*
X5100Y3631D01*
Y3623D01*
X5100D01*
X5100Y3581D01*
Y3504D01*
X5100D01*
Y3496D01*
X5100D01*
Y3377D01*
X5100D01*
Y3369D01*
X5100D01*
Y3250D01*
X5100D01*
Y3242D01*
X5100D01*
Y3166D01*
X5100Y3123D01*
X5100D01*
Y3115D01*
X5100D01*
Y2995D01*
X5145D01*
Y2949D01*
X5144Y2946D01*
X5162Y2904D01*
X5275Y2791D01*
X5263Y2732D01*
X5231Y2719D01*
X5209Y2665D01*
X4105D01*
Y2865D01*
X4074D01*
X4073Y2912D01*
X4087Y2959D01*
X4124Y2959D01*
X4201D01*
Y2978D01*
X4242Y3006D01*
X4250Y3003D01*
X4319Y3031D01*
X4347Y3100D01*
X4319Y3169D01*
X4250Y3197D01*
X4182Y3169D01*
X4119D01*
X4073Y3186D01*
X4063Y3212D01*
X4056Y3229D01*
X4044Y3241D01*
X4047Y3250D01*
X4031Y3290D01*
X4063Y3340D01*
X4307D01*
X4331Y3281D01*
X4400Y3253D01*
X4440Y3269D01*
X4471Y3257D01*
X4490Y3237D01*
Y3123D01*
X4490D01*
Y3115D01*
X4490D01*
Y2995D01*
X4700D01*
Y3115D01*
X4700D01*
Y3123D01*
X4700D01*
Y3242D01*
X4700D01*
Y3250D01*
X4700D01*
Y3369D01*
X4700D01*
Y3377D01*
X4700D01*
Y3453D01*
X4700Y3496D01*
X4700D01*
Y3504D01*
X4700D01*
Y3623D01*
X4700D01*
Y3631D01*
X4700D01*
Y3750D01*
X4700D01*
Y3758D01*
X4700D01*
Y3877D01*
X4700D01*
Y3885D01*
X4700D01*
Y4004D01*
X4619D01*
X4432Y4192D01*
X4390Y4210D01*
X4300D01*
Y4230D01*
X4100D01*
Y4210D01*
X4058Y4192D01*
X3986Y4120D01*
X3930D01*
Y3980D01*
X3930D01*
X3929Y3976D01*
X3872Y3962D01*
X3870Y3964D01*
Y4020D01*
X3860D01*
Y4080D01*
X3870D01*
Y4220D01*
X3730D01*
Y4080D01*
X3740D01*
Y4020D01*
X3730D01*
Y3929D01*
X3688Y3898D01*
X3661Y3906D01*
X3642Y3958D01*
X3660Y4000D01*
Y4250D01*
X3642Y4292D01*
X3542Y4392D01*
X3500Y4410D01*
Y4430D01*
X3300D01*
Y4410D01*
X3250D01*
Y4430D01*
X3050D01*
Y4410D01*
X3008Y4392D01*
X2941Y4326D01*
X2897Y4350D01*
X2869Y4419D01*
X2825Y4437D01*
Y4350D01*
X2800D01*
Y4325D01*
X2713D01*
X2731Y4281D01*
X2800Y4253D01*
X2824Y4209D01*
X2770Y4154D01*
X2628D01*
X2581Y4162D01*
Y4238D01*
X2581Y4281D01*
X2581D01*
Y4288D01*
X2581D01*
Y4323D01*
X2476D01*
Y4348D01*
X2451D01*
Y4408D01*
X2371D01*
Y4378D01*
X2325Y4359D01*
X2294Y4391D01*
X2251Y4408D01*
X1629D01*
Y4408D01*
X1525D01*
X1522Y4410D01*
X1330D01*
Y4450D01*
X1180D01*
X1170Y4450D01*
X1130D01*
X1120Y4450D01*
X1075D01*
Y4350D01*
Y4250D01*
X1120D01*
X1130Y4250D01*
X1170D01*
X1180Y4250D01*
X1330D01*
Y4268D01*
X1370Y4285D01*
X1419Y4263D01*
X1419Y4238D01*
Y4206D01*
X1401Y4161D01*
X1370Y4160D01*
X1323Y4160D01*
X1319Y4169D01*
X1250Y4197D01*
X1217Y4184D01*
X1175Y4171D01*
X1133Y4184D01*
X1125Y4187D01*
Y4100D01*
Y4013D01*
X1169Y4031D01*
X1181Y4031D01*
X1250Y4003D01*
X1319Y4031D01*
X1323Y4040D01*
X1369Y4040D01*
X1375Y4040D01*
X1408Y4009D01*
X1406Y3972D01*
X1375Y3952D01*
Y3850D01*
Y3756D01*
X1419Y3727D01*
Y3653D01*
X1419D01*
Y3646D01*
X1419D01*
Y3526D01*
X1419D01*
Y3519D01*
X1419D01*
Y3429D01*
X1369Y3419D01*
X1325Y3437D01*
Y3350D01*
Y3263D01*
X1369Y3281D01*
X1419Y3272D01*
Y3265D01*
X1419D01*
Y3145D01*
X1419D01*
Y3138D01*
X1419D01*
Y3018D01*
X1419D01*
Y3011D01*
X1419D01*
Y2935D01*
X1400Y2922D01*
X1331Y2894D01*
X1323Y2874D01*
X1177D01*
X1169Y2894D01*
X1100Y2922D01*
X1031Y2894D01*
X1003Y2825D01*
X1031Y2756D01*
X1100Y2728D01*
X1169Y2756D01*
X1177Y2776D01*
X1323D01*
X1331Y2756D01*
X1400Y2728D01*
X1469Y2756D01*
X1475Y2771D01*
X1793D01*
X1828Y2786D01*
X1840Y2798D01*
X1890Y2777D01*
Y2500D01*
X1896D01*
X1915Y2471D01*
X1889Y2421D01*
X1847D01*
X1804Y2421D01*
Y2421D01*
X1797D01*
X1768Y2460D01*
X1761Y2471D01*
X1772Y2500D01*
X1744Y2569D01*
X1675Y2597D01*
X1606Y2569D01*
X1578Y2500D01*
X1586Y2480D01*
X1575Y2469D01*
X1571Y2459D01*
X1543Y2421D01*
X1423D01*
X1423Y2421D01*
X1415D01*
Y2421D01*
X1373Y2421D01*
X1296D01*
X1296Y2421D01*
X1289D01*
Y2421D01*
X1245Y2421D01*
X1169D01*
X1169Y2421D01*
X1161D01*
Y2421D01*
X1127Y2421D01*
Y2316D01*
X1077D01*
Y2421D01*
X1042D01*
Y2421D01*
X1035D01*
Y2421D01*
X915D01*
Y2295D01*
X908Y2292D01*
X890Y2250D01*
Y2223D01*
X881Y2219D01*
X853Y2150D01*
X881Y2081D01*
X907Y2070D01*
X1039Y1939D01*
X1100Y1913D01*
X1314D01*
X1489Y1739D01*
X1489Y1739D01*
X1550Y1713D01*
X1550Y1713D01*
X1654D01*
X1673Y1667D01*
X1579Y1573D01*
X1570Y1572D01*
X1558Y1573D01*
X1526Y1581D01*
X1517Y1602D01*
X1319Y1799D01*
X1285Y1814D01*
X915D01*
X649Y2080D01*
Y2450D01*
X634Y2484D01*
X549Y2570D01*
Y2650D01*
X534Y2684D01*
X472Y2747D01*
X480Y2766D01*
X442Y2858D01*
X417Y2868D01*
Y2918D01*
X442Y2928D01*
X480Y3020D01*
X442Y3112D01*
X350Y3150D01*
X258Y3112D01*
X220Y3020D01*
X258Y2928D01*
X283Y2918D01*
Y2868D01*
X258Y2858D01*
X220Y2766D01*
X258Y2674D01*
X283Y2664D01*
Y2614D01*
X258Y2604D01*
X220Y2512D01*
X258Y2420D01*
X283Y2410D01*
Y2360D01*
X258Y2350D01*
X230Y2283D01*
X350D01*
Y2233D01*
X230D01*
X258Y2166D01*
X283Y2156D01*
Y2106D01*
X258Y2096D01*
X220Y2004D01*
X255Y1920D01*
X235Y1870D01*
X230D01*
Y1630D01*
X470D01*
Y1701D01*
X680D01*
X915Y1467D01*
Y1259D01*
X979D01*
X990Y1213D01*
X990Y1209D01*
X829Y1048D01*
X817Y1020D01*
X750Y1047D01*
X681Y1019D01*
X654Y955D01*
X642Y950D01*
X608D01*
X596Y955D01*
X569Y1019D01*
X500Y1047D01*
X431Y1019D01*
X405Y955D01*
X403Y950D01*
X369Y912D01*
X365Y910D01*
X356Y914D01*
X345Y910D01*
X295D01*
Y861D01*
X290Y849D01*
X295Y837D01*
Y811D01*
X290Y799D01*
Y723D01*
X281Y719D01*
X253Y650D01*
X281Y581D01*
X350Y553D01*
X370Y561D01*
X581Y350D01*
X560Y300D01*
X507Y300D01*
Y195D01*
Y90D01*
X543D01*
X584Y90D01*
Y195D01*
X634D01*
Y90D01*
X670D01*
X711Y90D01*
Y195D01*
X761D01*
Y90D01*
X797D01*
X839Y90D01*
Y195D01*
X889D01*
Y90D01*
X923D01*
X965Y90D01*
Y195D01*
X1015D01*
Y90D01*
X1051D01*
X1093Y90D01*
Y195D01*
X1143D01*
Y90D01*
X1177D01*
X1219Y90D01*
Y195D01*
X1244D01*
Y220D01*
X1305D01*
Y251D01*
X1305Y300D01*
X1354Y301D01*
X1530D01*
X1549Y309D01*
X1609Y295D01*
X1620Y270D01*
X1631Y265D01*
X1628Y212D01*
X1613Y175D01*
X1787D01*
X1772Y212D01*
X1769Y265D01*
X1780Y270D01*
X1814Y350D01*
X1801Y380D01*
X1829Y421D01*
X1978D01*
X2011Y371D01*
X2003Y350D01*
X2031Y281D01*
X2045Y275D01*
Y109D01*
X2123D01*
X2165Y109D01*
Y109D01*
X2173D01*
Y109D01*
X2208D01*
Y214D01*
X2258D01*
Y109D01*
X2292D01*
Y109D01*
X2300D01*
Y109D01*
X2419D01*
X2419Y109D01*
X2427D01*
Y109D01*
X2469Y109D01*
X2546D01*
X2547Y109D01*
X2554D01*
Y109D01*
X2597Y109D01*
X2673D01*
X2674Y109D01*
X2681D01*
Y109D01*
X2724Y109D01*
X2800D01*
X2800Y109D01*
X2808D01*
Y109D01*
X2842Y109D01*
Y214D01*
X2892D01*
Y109D01*
X2927D01*
Y109D01*
X2935D01*
Y109D01*
X3055D01*
Y276D01*
X3086Y289D01*
X3093Y306D01*
X3094Y306D01*
X3122Y375D01*
X3112Y401D01*
Y539D01*
X3172Y600D01*
X3187Y614D01*
X3241Y616D01*
X3275Y603D01*
X3332Y626D01*
X3380Y630D01*
Y630D01*
X3520D01*
Y648D01*
X3562Y676D01*
X3580Y663D01*
Y530D01*
X3720D01*
Y540D01*
X3770D01*
Y500D01*
X3920D01*
X3930Y500D01*
X3970D01*
X3980Y500D01*
X4130D01*
Y540D01*
X4195D01*
Y485D01*
X4405D01*
Y690D01*
X4405Y715D01*
X4444Y740D01*
X4456D01*
X4495Y715D01*
Y485D01*
X4540D01*
Y315D01*
X4495D01*
Y85D01*
X4705D01*
Y315D01*
X4660D01*
Y485D01*
X4705D01*
Y715D01*
X4705Y715D01*
X4697Y750D01*
X4693Y760D01*
X4693Y760D01*
X4693Y762D01*
X4669Y819D01*
X4651Y826D01*
X4634Y882D01*
X4651Y909D01*
X4651D01*
Y1119D01*
X4698Y1126D01*
X4998D01*
X5027Y1122D01*
X5046Y1081D01*
Y909D01*
X5046D01*
Y795D01*
X5050Y785D01*
Y670D01*
X5050Y670D01*
Y630D01*
X5050D01*
X5050Y620D01*
Y470D01*
X5250D01*
Y516D01*
X5300Y566D01*
X5350Y545D01*
Y470D01*
X5550D01*
Y516D01*
X5600Y566D01*
X5650Y545D01*
Y470D01*
X5725D01*
Y550D01*
X5750D01*
Y575D01*
X5850D01*
Y630D01*
X5850Y630D01*
Y670D01*
X5850D01*
X5850Y680D01*
Y830D01*
X5834D01*
X5816Y859D01*
X5841Y909D01*
X5928Y909D01*
X5978Y909D01*
X6054D01*
Y1119D01*
X5978D01*
X5935Y1119D01*
X5885Y1119D01*
X5808Y1119D01*
X5758Y1119D01*
X5681D01*
Y1119D01*
X5673D01*
Y1119D01*
X5597D01*
X5553Y1119D01*
Y1119D01*
X5546D01*
Y1119D01*
X5426D01*
Y1119D01*
X5419D01*
X5392Y1158D01*
X5385Y1169D01*
X5397Y1200D01*
X5369Y1269D01*
X5315Y1291D01*
X5325Y1341D01*
X5590D01*
X5624Y1356D01*
X5750Y1481D01*
X5801Y1481D01*
X5851Y1481D01*
X5928Y1481D01*
X5978Y1481D01*
X6054D01*
Y1691D01*
X5978D01*
X5935Y1691D01*
X5885Y1691D01*
X5808Y1691D01*
X5758Y1691D01*
X5724D01*
X5681Y1691D01*
Y1691D01*
X5673D01*
X5654Y1700D01*
X5641Y1757D01*
X6042Y2158D01*
X6060Y2200D01*
X6095Y2230D01*
X6120D01*
Y2470D01*
X6025D01*
X6004Y2520D01*
X6042Y2558D01*
X6060Y2600D01*
Y3500D01*
X6042Y3542D01*
X5944Y3641D01*
X5947Y3650D01*
X5919Y3719D01*
X5850Y3747D01*
X5830Y3739D01*
X5780Y3750D01*
X5775Y3760D01*
X5780Y3800D01*
X5780D01*
Y4000D01*
X5760D01*
Y4050D01*
X5780D01*
Y4250D01*
X5760D01*
Y4300D01*
X5780D01*
Y4500D01*
X6300D01*
Y0D01*
D02*
G37*
G36*
X5517Y2230D02*
X5584Y2258D01*
X5594Y2283D01*
X5644D01*
X5654Y2258D01*
X5690Y2243D01*
Y2125D01*
X5376Y1810D01*
X5341Y1825D01*
X5250D01*
Y1850D01*
X5225D01*
Y1950D01*
X5170D01*
X5170Y1950D01*
X5130D01*
Y1950D01*
X5120Y1950D01*
X4993D01*
X4972Y2000D01*
X5206Y2233D01*
X5238Y2220D01*
X5330Y2258D01*
X5340Y2283D01*
X5390D01*
X5400Y2258D01*
X5467Y2230D01*
Y2350D01*
X5517D01*
Y2230D01*
D02*
G37*
G36*
X3176Y1106D02*
X3210Y1091D01*
X3449D01*
Y927D01*
X3190D01*
X3186Y936D01*
X3186Y936D01*
X2886Y1236D01*
X2835Y1257D01*
X2814Y1290D01*
X2807Y1312D01*
X2822Y1350D01*
X2794Y1419D01*
X2726Y1447D01*
X2685Y1469D01*
X2685Y1469D01*
X2685Y1469D01*
X2566D01*
X2566Y1469D01*
X2558D01*
Y1469D01*
X2494Y1469D01*
X2466Y1510D01*
X2472Y1525D01*
X2466Y1540D01*
X2494Y1581D01*
X2700D01*
X3176Y1106D01*
D02*
G37*
G36*
X1606Y896D02*
X1586Y850D01*
X1620Y770D01*
X1670Y749D01*
X1660Y699D01*
X1576D01*
X1541Y684D01*
X1436Y579D01*
X1222D01*
X1189Y629D01*
X1197Y650D01*
X1231Y700D01*
X1305D01*
Y875D01*
X1319Y881D01*
X1346Y946D01*
X1572D01*
X1606Y896D01*
D02*
G37*
%LPC*%
G36*
X2581Y3434D02*
X2476D01*
X2371D01*
Y3399D01*
X2371Y3357D01*
X2476D01*
X2581D01*
Y3392D01*
X2581Y3434D01*
D02*
G37*
G36*
X2225Y3287D02*
X2181Y3269D01*
X2163Y3225D01*
X2225D01*
Y3287D01*
D02*
G37*
G36*
X3105Y3165D02*
X3025D01*
Y3075D01*
X3105D01*
Y3165D01*
D02*
G37*
G36*
X2975D02*
X2895D01*
Y3075D01*
X2975D01*
Y3165D01*
D02*
G37*
G36*
X3105Y3025D02*
X3025D01*
Y2935D01*
X3105D01*
Y3025D01*
D02*
G37*
G36*
X2975D02*
X2895D01*
Y2935D01*
X2975D01*
Y3025D01*
D02*
G37*
G36*
X3405Y3165D02*
X3195D01*
Y2935D01*
X3195Y2935D01*
X3203Y2900D01*
X3207Y2890D01*
X3207Y2890D01*
X3207Y2888D01*
X3231Y2831D01*
X3300Y2803D01*
X3369Y2831D01*
X3393Y2888D01*
X3393Y2890D01*
X3393Y2890D01*
X3397Y2900D01*
X3405Y2935D01*
X3405Y2935D01*
Y3165D01*
D02*
G37*
G36*
X2925Y2787D02*
Y2725D01*
X2987D01*
X2969Y2769D01*
X2925Y2787D01*
D02*
G37*
G36*
X2875D02*
X2831Y2769D01*
X2813Y2725D01*
X2875D01*
Y2787D01*
D02*
G37*
G36*
X2410Y2800D02*
X2325D01*
Y2675D01*
X2410D01*
Y2800D01*
D02*
G37*
G36*
X2275D02*
X2190D01*
Y2675D01*
X2275D01*
Y2800D01*
D02*
G37*
G36*
X2987Y2675D02*
X2925D01*
Y2613D01*
X2969Y2631D01*
X2987Y2675D01*
D02*
G37*
G36*
X2875D02*
X2813D01*
X2831Y2631D01*
X2875Y2613D01*
Y2675D01*
D02*
G37*
G36*
X2275Y2625D02*
X2190D01*
Y2500D01*
X2275D01*
Y2625D01*
D02*
G37*
G36*
X3375Y2087D02*
Y2025D01*
X3437D01*
X3419Y2069D01*
X3375Y2087D01*
D02*
G37*
G36*
X3325D02*
X3281Y2069D01*
X3263Y2025D01*
X3325D01*
Y2087D01*
D02*
G37*
G36*
X3437Y1975D02*
X3375D01*
Y1913D01*
X3419Y1931D01*
X3437Y1975D01*
D02*
G37*
G36*
X3325D02*
X3263D01*
X3281Y1931D01*
X3325Y1913D01*
Y1975D01*
D02*
G37*
G36*
X6075Y4437D02*
Y4375D01*
X6137D01*
X6119Y4419D01*
X6075Y4437D01*
D02*
G37*
G36*
X6025D02*
X5981Y4419D01*
X5963Y4375D01*
X6025D01*
Y4437D01*
D02*
G37*
G36*
X4875D02*
Y4375D01*
X4937D01*
X4919Y4419D01*
X4875Y4437D01*
D02*
G37*
G36*
X4825D02*
X4781Y4419D01*
X4763Y4375D01*
X4825D01*
Y4437D01*
D02*
G37*
G36*
X2775D02*
X2731Y4419D01*
X2713Y4375D01*
X2775D01*
Y4437D01*
D02*
G37*
G36*
X275D02*
Y4375D01*
X337D01*
X319Y4419D01*
X275Y4437D01*
D02*
G37*
G36*
X225D02*
X181Y4419D01*
X163Y4375D01*
X225D01*
Y4437D01*
D02*
G37*
G36*
X1025Y4450D02*
X970D01*
Y4375D01*
X1025D01*
Y4450D01*
D02*
G37*
G36*
X2581Y4408D02*
X2501D01*
Y4373D01*
X2581D01*
Y4408D01*
D02*
G37*
G36*
X6137Y4325D02*
X6075D01*
Y4263D01*
X6119Y4281D01*
X6137Y4325D01*
D02*
G37*
G36*
X6025D02*
X5963D01*
X5981Y4281D01*
X6025Y4263D01*
Y4325D01*
D02*
G37*
G36*
X4937D02*
X4875D01*
Y4263D01*
X4919Y4281D01*
X4937Y4325D01*
D02*
G37*
G36*
X4825D02*
X4763D01*
X4781Y4281D01*
X4825Y4263D01*
Y4325D01*
D02*
G37*
G36*
X337D02*
X275D01*
Y4263D01*
X319Y4281D01*
X337Y4325D01*
D02*
G37*
G36*
X225D02*
X163D01*
X181Y4281D01*
X225Y4263D01*
Y4325D01*
D02*
G37*
G36*
X1025Y4325D02*
X970D01*
Y4250D01*
X1025D01*
Y4325D01*
D02*
G37*
G36*
X1075Y4187D02*
X1031Y4169D01*
X1013Y4125D01*
X1075D01*
Y4187D01*
D02*
G37*
G36*
Y4075D02*
X1013D01*
X1031Y4031D01*
X1075Y4013D01*
Y4075D01*
D02*
G37*
G36*
X1325Y3937D02*
X1281Y3919D01*
X1263Y3875D01*
X1325D01*
Y3937D01*
D02*
G37*
G36*
Y3825D02*
X1263D01*
X1281Y3781D01*
X1325Y3763D01*
Y3825D01*
D02*
G37*
G36*
X1275Y3437D02*
X1231Y3419D01*
X1213Y3375D01*
X1275D01*
Y3437D01*
D02*
G37*
G36*
Y3325D02*
X1213D01*
X1231Y3281D01*
X1275Y3263D01*
Y3325D01*
D02*
G37*
G36*
X3520Y570D02*
X3475D01*
Y525D01*
X3520D01*
Y570D01*
D02*
G37*
G36*
X3425D02*
X3380D01*
Y525D01*
X3425D01*
Y570D01*
D02*
G37*
G36*
X5850Y525D02*
X5775D01*
Y470D01*
X5850D01*
Y525D01*
D02*
G37*
G36*
X3520Y475D02*
X3475D01*
Y430D01*
X3520D01*
Y475D01*
D02*
G37*
G36*
X3425D02*
X3380D01*
Y430D01*
X3425D01*
Y475D01*
D02*
G37*
G36*
X4405Y315D02*
X4195D01*
Y260D01*
X4130D01*
Y300D01*
X3980D01*
X3970Y300D01*
X3930D01*
X3920Y300D01*
X3770D01*
Y260D01*
X3720D01*
Y270D01*
X3580D01*
Y130D01*
X3720D01*
Y140D01*
X3770D01*
Y100D01*
X3920D01*
X3930Y100D01*
X3970D01*
X3980Y100D01*
X4130D01*
Y140D01*
X4195D01*
Y85D01*
X4405D01*
Y315D01*
D02*
G37*
G36*
X3275Y397D02*
X3206Y369D01*
X3178Y300D01*
X3206Y231D01*
X3275Y203D01*
X3332Y226D01*
X3380Y230D01*
Y230D01*
X3520D01*
Y370D01*
X3380D01*
X3380Y370D01*
X3332Y374D01*
X3275Y397D01*
D02*
G37*
G36*
X6075Y237D02*
Y175D01*
X6137D01*
X6119Y219D01*
X6075Y237D01*
D02*
G37*
G36*
X6025D02*
X5981Y219D01*
X5963Y175D01*
X6025D01*
Y237D01*
D02*
G37*
G36*
X4925D02*
Y175D01*
X4987D01*
X4969Y219D01*
X4925Y237D01*
D02*
G37*
G36*
X4875D02*
X4831Y219D01*
X4813Y175D01*
X4875D01*
Y237D01*
D02*
G37*
G36*
X225D02*
X181Y219D01*
X163Y175D01*
X225D01*
Y237D01*
D02*
G37*
G36*
X3520Y170D02*
X3475D01*
Y125D01*
X3520D01*
Y170D01*
D02*
G37*
G36*
X3425D02*
X3380D01*
Y125D01*
X3425D01*
Y170D01*
D02*
G37*
G36*
X1305Y170D02*
X1269D01*
Y90D01*
X1305D01*
Y170D01*
D02*
G37*
G36*
X331Y300D02*
X295D01*
Y274D01*
X275Y260D01*
Y150D01*
Y63D01*
X319Y81D01*
X323Y90D01*
X331D01*
Y195D01*
Y300D01*
D02*
G37*
G36*
X422Y300D02*
X381Y300D01*
Y195D01*
Y90D01*
X416D01*
X457Y90D01*
Y195D01*
Y300D01*
X422D01*
D02*
G37*
G36*
X6137Y125D02*
X6075D01*
Y63D01*
X6119Y81D01*
X6137Y125D01*
D02*
G37*
G36*
X6025D02*
X5963D01*
X5981Y81D01*
X6025Y63D01*
Y125D01*
D02*
G37*
G36*
X4987D02*
X4925D01*
Y63D01*
X4969Y81D01*
X4987Y125D01*
D02*
G37*
G36*
X4875D02*
X4813D01*
X4831Y81D01*
X4875Y63D01*
Y125D01*
D02*
G37*
G36*
X1787D02*
X1725D01*
Y63D01*
X1769Y81D01*
X1787Y125D01*
D02*
G37*
G36*
X1675D02*
X1613D01*
X1631Y81D01*
X1675Y63D01*
Y125D01*
D02*
G37*
G36*
X225D02*
X163D01*
X181Y81D01*
X225Y63D01*
Y125D01*
D02*
G37*
G36*
X5330Y1950D02*
X5275D01*
Y1875D01*
X5330D01*
Y1950D01*
D02*
G37*
%LPD*%
D10*
X2300Y2650D02*
D03*
X2000D02*
D03*
D11*
X2106Y214D02*
D03*
Y786D02*
D03*
X2994Y214D02*
D03*
X2867D02*
D03*
X2741D02*
D03*
X2614D02*
D03*
X2486D02*
D03*
X2359D02*
D03*
X2233D02*
D03*
Y786D02*
D03*
X2359D02*
D03*
X2486D02*
D03*
X2614D02*
D03*
X2741D02*
D03*
X2867D02*
D03*
X2994D02*
D03*
X974Y1364D02*
D03*
X1102D02*
D03*
X1228D02*
D03*
X1356D02*
D03*
X1482D02*
D03*
X1609D02*
D03*
X1736D02*
D03*
X2625D02*
D03*
X2499D02*
D03*
X2372D02*
D03*
X2244D02*
D03*
X2117D02*
D03*
X1991D02*
D03*
X1864D02*
D03*
Y2316D02*
D03*
X1991D02*
D03*
X2117D02*
D03*
X2244D02*
D03*
X2372D02*
D03*
X2499D02*
D03*
X2625D02*
D03*
X1736D02*
D03*
X1609D02*
D03*
X1482D02*
D03*
X1356D02*
D03*
X1228D02*
D03*
X1102D02*
D03*
X974D02*
D03*
X3510Y1586D02*
D03*
X3637D02*
D03*
X3763D02*
D03*
X3890D02*
D03*
Y1014D02*
D03*
X3763D02*
D03*
X3637D02*
D03*
X3510D02*
D03*
X4210Y1586D02*
D03*
X4337D02*
D03*
X4463D02*
D03*
X4590D02*
D03*
Y1014D02*
D03*
X4463D02*
D03*
X4337D02*
D03*
X4210D02*
D03*
X5994Y1586D02*
D03*
Y1014D02*
D03*
X5106Y1586D02*
D03*
X5233D02*
D03*
X5360D02*
D03*
X5487D02*
D03*
X5613D02*
D03*
X5740D02*
D03*
X5867D02*
D03*
Y1014D02*
D03*
X5740D02*
D03*
X5613D02*
D03*
X5487D02*
D03*
X5360D02*
D03*
X5233D02*
D03*
X5106D02*
D03*
X4140Y3636D02*
D03*
X4013D02*
D03*
X3887D02*
D03*
X3760D02*
D03*
Y3064D02*
D03*
X3887D02*
D03*
X4013D02*
D03*
X4140D02*
D03*
X1244Y805D02*
D03*
Y195D02*
D03*
X356Y805D02*
D03*
X482D02*
D03*
X609D02*
D03*
X736D02*
D03*
X864D02*
D03*
X990D02*
D03*
X1118D02*
D03*
Y195D02*
D03*
X990D02*
D03*
X864D02*
D03*
X736D02*
D03*
X609D02*
D03*
X482D02*
D03*
X356D02*
D03*
D12*
X4200Y3950D02*
D03*
Y4150D02*
D03*
X5150Y750D02*
D03*
Y550D02*
D03*
X5450Y750D02*
D03*
Y550D02*
D03*
X5750D02*
D03*
Y750D02*
D03*
X3400Y4150D02*
D03*
Y4350D02*
D03*
X3150D02*
D03*
Y4150D02*
D03*
X2750Y3850D02*
D03*
Y3650D02*
D03*
D13*
X5500Y4400D02*
D03*
X5700D02*
D03*
X5500Y4150D02*
D03*
X5700D02*
D03*
X5500Y3900D02*
D03*
X5700D02*
D03*
X5500Y3650D02*
D03*
X5700D02*
D03*
X5500Y2650D02*
D03*
X5700D02*
D03*
X5500Y2900D02*
D03*
X5700D02*
D03*
X5500Y3400D02*
D03*
X5700D02*
D03*
X5500Y3150D02*
D03*
X5700D02*
D03*
X4050Y200D02*
D03*
X3850D02*
D03*
X4050Y600D02*
D03*
X3850D02*
D03*
X3600Y1850D02*
D03*
X3800D02*
D03*
X4300D02*
D03*
X4500D02*
D03*
X5250D02*
D03*
X5050D02*
D03*
X3350Y3900D02*
D03*
X3150D02*
D03*
X1050Y4350D02*
D03*
X1250D02*
D03*
D14*
X4300Y200D02*
D03*
X4600D02*
D03*
X4300Y600D02*
D03*
X4600D02*
D03*
X3000Y3050D02*
D03*
X3300D02*
D03*
X3150Y3350D02*
D03*
X3450D02*
D03*
X3150Y3650D02*
D03*
X3450D02*
D03*
X4000Y2750D02*
D03*
X3700D02*
D03*
D15*
X3650Y600D02*
D03*
X3450Y500D02*
D03*
Y700D02*
D03*
X3650Y200D02*
D03*
X3450Y100D02*
D03*
Y300D02*
D03*
X4000Y4050D02*
D03*
X3800Y3950D02*
D03*
Y4150D02*
D03*
D16*
X5205Y3056D02*
D03*
Y3183D02*
D03*
Y3310D02*
D03*
Y3437D02*
D03*
Y3563D02*
D03*
Y3690D02*
D03*
Y3817D02*
D03*
X4595D02*
D03*
Y3690D02*
D03*
Y3563D02*
D03*
Y3437D02*
D03*
Y3310D02*
D03*
Y3183D02*
D03*
Y3056D02*
D03*
X5205Y3944D02*
D03*
X4595D02*
D03*
X1524Y2951D02*
D03*
Y3078D02*
D03*
Y3206D02*
D03*
Y4094D02*
D03*
Y3967D02*
D03*
Y3840D02*
D03*
Y3713D02*
D03*
Y3587D02*
D03*
Y3460D02*
D03*
Y3333D02*
D03*
X2476Y3840D02*
D03*
Y3967D02*
D03*
Y4094D02*
D03*
Y4222D02*
D03*
Y4349D02*
D03*
Y3713D02*
D03*
Y3587D02*
D03*
Y3460D02*
D03*
Y3333D02*
D03*
Y3206D02*
D03*
Y3078D02*
D03*
Y2951D02*
D03*
X1524Y4349D02*
D03*
Y4222D02*
D03*
D17*
X3125Y675D02*
Y840D01*
X3025Y575D02*
X3125Y675D01*
X3025Y375D02*
Y575D01*
X3125Y840D02*
Y875D01*
X2825Y1175D02*
X3125Y875D01*
X2725Y1175D02*
X2825D01*
X1350Y2000D02*
X1550Y1800D01*
X1100Y2000D02*
X1350D01*
X950Y2150D02*
X1100Y2000D01*
X1550Y1800D02*
X2305D01*
X3125Y840D02*
X3503D01*
X3025Y350D02*
Y375D01*
X3503Y840D02*
X3543Y800D01*
X3700D01*
X1050Y4150D02*
Y4350D01*
Y4150D02*
X1100Y4100D01*
D18*
X3700Y800D02*
X4550D01*
X4600Y750D01*
X4365Y1335D02*
X4885D01*
X4250Y1450D02*
X4365Y1335D01*
X4150Y1450D02*
X4250D01*
X2117Y2183D02*
Y2316D01*
X2300Y2625D02*
Y2650D01*
X2117Y2316D02*
Y2442D01*
X3950Y2525D02*
X5925D01*
X3725Y2750D02*
X3950Y2525D01*
X3475Y2750D02*
X3725D01*
X3450Y2550D02*
X3450Y2550D01*
X3650Y3126D02*
X3712Y3064D01*
X3450Y2550D02*
X3768D01*
X3968Y2350D01*
X3206Y2481D02*
X3475Y2750D01*
X3206Y2350D02*
Y2481D01*
X4000Y2655D02*
Y2750D01*
Y2655D02*
X4050Y2605D01*
X5255D01*
X2600Y1175D02*
X2725D01*
X2500Y1275D02*
X2600Y1175D01*
X2500Y1275D02*
Y1362D01*
X2499Y1364D02*
X2500Y1362D01*
X2650Y1350D02*
X2725D01*
X2625Y1326D02*
X2650Y1350D01*
X2625Y1326D02*
Y1364D01*
X2117Y1257D02*
X2150Y1225D01*
X1102Y2199D02*
Y2316D01*
Y2199D02*
X1150Y2150D01*
X950D02*
Y2250D01*
X2499Y1364D02*
Y1374D01*
X3700Y850D02*
Y1014D01*
X4590Y1510D02*
X4650Y1450D01*
X4885Y1335D02*
X4950Y1400D01*
X5000D01*
X6000Y2200D02*
Y2350D01*
X5487Y1686D02*
X6000Y2200D01*
X5750Y2100D02*
Y2346D01*
X5360Y1709D02*
X5750Y2100D01*
X5360Y1659D02*
Y1709D01*
X3700Y1014D02*
X3763D01*
X3637D02*
X3700D01*
X3300Y2900D02*
Y3050D01*
X1418Y3333D02*
X1524D01*
X1350Y3400D02*
X1418Y3333D01*
X1350Y3400D02*
Y3850D01*
X2950Y3550D02*
Y3950D01*
Y3550D02*
X3150Y3350D01*
X1524Y4349D02*
X1950D01*
Y3950D02*
Y4349D01*
X1991Y2641D02*
X2000Y2650D01*
X2975Y4150D02*
X3150D01*
X2792Y3967D02*
X2975Y4150D01*
X2476Y4094D02*
X2794D01*
X3050Y4350D01*
X3150D01*
X1850Y1525D02*
X1864Y1511D01*
Y1364D02*
Y1511D01*
X1991Y1215D02*
Y1364D01*
X1975Y1200D02*
X1991Y1215D01*
X3150Y4150D02*
X3150Y4150D01*
X2476Y3967D02*
X2792D01*
X2825Y375D02*
X2867Y333D01*
Y214D02*
Y333D01*
X2994Y319D02*
X3025Y350D01*
X2994Y214D02*
Y319D01*
X3900Y1550D02*
X3975D01*
X3890Y1540D02*
X3900Y1550D01*
X3890Y1540D02*
Y1586D01*
X3510Y1540D02*
Y1586D01*
X3500Y1550D02*
X3510Y1540D01*
X3425Y1550D02*
X3500D01*
X2000Y800D02*
X2014Y786D01*
X2106D01*
X2100Y350D02*
X2100Y350D01*
X2100D01*
X2106Y344D01*
Y214D02*
Y344D01*
X2125Y1225D02*
X2150D01*
X2117Y1257D02*
Y1364D01*
X1975Y1200D02*
Y1225D01*
X5106Y795D02*
X5150Y750D01*
X5106Y795D02*
Y1014D01*
X5150Y550D02*
X5200D01*
X5300Y650D01*
Y850D01*
X5360Y910D01*
Y1014D01*
X5450Y750D02*
X5487Y786D01*
Y1014D01*
X5450Y550D02*
X5500D01*
X5600Y650D01*
Y886D01*
X5613Y900D01*
Y1014D01*
X5740Y759D02*
X5750Y750D01*
X5740Y759D02*
Y1014D01*
X5487Y1586D02*
Y1686D01*
X5360Y1586D02*
Y1709D01*
X5746Y2350D02*
X5750Y2346D01*
X3637Y1536D02*
Y1814D01*
X3600Y1850D02*
X3637Y1814D01*
X3763Y1536D02*
Y1814D01*
X3800Y1850D01*
X4337Y1536D02*
Y1814D01*
X4300Y1850D02*
X4337Y1814D01*
X4463Y1536D02*
Y1814D01*
X4500Y1850D01*
X4300Y1848D02*
Y1850D01*
X4730Y2290D02*
Y2350D01*
X4500Y1850D02*
X4738D01*
X5238Y2350D01*
X4634Y2000D02*
X4984Y2350D01*
X4300Y1848D02*
X4452Y2000D01*
X4634D01*
X4540Y2100D02*
X4730Y2290D01*
X4400Y2200D02*
X4476Y2276D01*
Y2350D01*
X5233Y1536D02*
Y1833D01*
X5250Y1850D01*
X5492Y2092D01*
X5106Y1536D02*
Y1794D01*
X5050Y1850D02*
X5106Y1794D01*
X4210Y1510D02*
Y1586D01*
X4150Y1450D02*
X4210Y1510D01*
X4590Y1510D02*
Y1586D01*
X5000Y1400D02*
X5100Y1500D01*
Y1580D01*
X5106Y1586D01*
X5233Y1132D02*
X5300Y1200D01*
X5233Y1014D02*
Y1132D01*
X4600Y200D02*
Y600D01*
Y750D01*
X974Y2275D02*
Y2326D01*
X4050Y600D02*
X4300D01*
X4050Y200D02*
X4300D01*
X3650Y600D02*
X3850D01*
X3650Y200D02*
X3850D01*
X1524Y3078D02*
X1728D01*
X1750Y3100D01*
X1524Y2951D02*
X1724D01*
X1750Y2925D01*
X1524Y3206D02*
X1656D01*
X1991Y2326D02*
Y2641D01*
X1400Y4100D02*
X1518D01*
X1524Y4094D01*
X1250Y4100D02*
X1400Y4100D01*
X1400Y4100D01*
X2267Y3967D02*
X2476D01*
X2306Y4094D02*
X2476D01*
X2250Y3950D02*
X2267Y3967D01*
X2250Y4150D02*
X2306Y4094D01*
X2250Y4150D02*
X2250D01*
X1750Y3300D02*
X1800D01*
X1656Y3206D02*
X1750Y3300D01*
X1731Y3450D02*
X1741Y3460D01*
X1700Y3450D02*
X1731D01*
X1700Y3730D02*
X1715Y3715D01*
X1700Y3730D02*
Y3750D01*
X1664Y3713D02*
X1700Y3750D01*
X1524Y3713D02*
X1664D01*
X1786Y3587D02*
X1800Y3600D01*
X1524Y3587D02*
X1786D01*
X1691Y3460D02*
X1700Y3450D01*
X1524Y3460D02*
X1691D01*
X1250Y4350D02*
X1522D01*
X1524Y4349D01*
X2251D02*
X2378Y4222D01*
X2476D01*
X1950Y4349D02*
X2251D01*
X1524Y3967D02*
X1683D01*
X1915Y3735D01*
Y3090D02*
Y3735D01*
X1750Y2925D02*
X1915Y3090D01*
X2741Y3840D02*
X2750Y3850D01*
X2476Y3840D02*
X2741D01*
X2686Y3713D02*
X2750Y3650D01*
X2476Y3713D02*
X2686D01*
X1915Y3735D02*
X2115D01*
X2150Y3700D01*
X2185D01*
X2750Y3550D02*
Y3650D01*
X4000Y4050D02*
X4100Y4150D01*
X4200D01*
X4000Y4050D02*
X4013Y4037D01*
Y3636D02*
Y4037D01*
X3800Y3950D02*
X3887Y3863D01*
X3800Y3950D02*
Y4150D01*
X4140Y3636D02*
Y3890D01*
X4200Y3950D01*
Y4150D02*
X4390D01*
X4595Y3944D01*
Y3563D02*
Y3690D01*
Y3817D01*
Y3944D01*
Y3056D02*
Y3183D01*
Y3310D01*
Y3437D01*
X4200Y3950D02*
X4350D01*
X4000Y2750D02*
X4013Y2764D01*
Y3064D01*
X4140D02*
X4176Y3100D01*
X4250D01*
X3760Y3610D02*
Y3636D01*
X3650Y3100D02*
Y3126D01*
X3712Y3064D02*
X3760D01*
X3700Y3550D02*
X3760Y3610D01*
X3650Y3550D02*
X3700D01*
X4013Y3064D02*
Y3186D01*
X3950Y3250D02*
X4013Y3186D01*
X3887Y3636D02*
Y3800D01*
Y3863D01*
X4594Y3435D02*
X4595Y3437D01*
X5205Y3563D02*
X5313D01*
X5400Y3650D01*
X5500D01*
X5205Y3437D02*
X5363D01*
X5400Y3400D01*
X5500D01*
X5205Y3310D02*
X5340D01*
X5500Y3150D01*
X5205Y3045D02*
Y3056D01*
X5204Y2946D02*
X5401Y2749D01*
X5205Y3944D02*
Y4005D01*
X5204Y4104D02*
X5401Y4301D01*
X5700Y3650D02*
Y3900D01*
Y4150D01*
Y4400D01*
Y2650D02*
Y2900D01*
Y3150D01*
Y3650D02*
X5850D01*
X5700Y2650D02*
X5850D01*
X3812Y3500D02*
X4450D01*
X4515Y3435D01*
X4594D01*
X3887Y3064D02*
Y3151D01*
X3835Y3202D02*
X3887Y3151D01*
X3835Y3202D02*
Y3335D01*
X3900Y3400D01*
X4350D01*
X4400Y3350D01*
X5700Y3250D02*
X5850D01*
X5700Y3150D02*
Y3250D01*
Y3400D01*
X5925Y2525D02*
X6000Y2600D01*
Y3500D01*
X5850Y3650D02*
X6000Y3500D01*
X5255Y2605D02*
X5300Y2650D01*
X3800Y1850D02*
X4050D01*
X4300Y2100D01*
X4540D01*
X3600Y1850D02*
Y1950D01*
X4200Y2200D02*
X4400D01*
X3600Y1950D02*
X3650Y2000D01*
X4000D01*
X4200Y2200D01*
X2117Y2183D02*
X2150Y2150D01*
X2150D01*
Y2150D02*
Y2150D01*
X1360Y3840D02*
X1524D01*
X1350Y3850D02*
X1360Y3840D01*
X2150Y2150D02*
X2151Y2151D01*
X4950Y1850D02*
X5050D01*
X4850Y1750D02*
X4950Y1850D01*
X4750Y1725D02*
Y1750D01*
X4850D01*
X5450Y4150D02*
X5500D01*
X5205Y3183D02*
X5317D01*
X5395Y4095D02*
X5450Y4150D01*
X5317Y3183D02*
X5395Y3105D01*
Y3005D02*
Y3105D01*
Y3005D02*
X5500Y2900D01*
X5205Y3690D02*
X5290D01*
X5500Y3900D01*
X5205Y3817D02*
X5267D01*
X5395Y3945D01*
Y4095D01*
X5204Y2946D02*
X5205Y2945D01*
X5401Y2749D02*
X5500Y2650D01*
X5205Y2945D02*
Y3056D01*
X5204Y4104D02*
X5205Y4105D01*
X5401Y4301D02*
X5500Y4400D01*
X5205Y3944D02*
Y4105D01*
X3662Y3350D02*
X3812Y3500D01*
X5492Y2092D02*
Y2350D01*
X3450Y3350D02*
X3662D01*
X3450Y3650D02*
X3600Y3800D01*
X3650D01*
X3150Y3650D02*
Y3900D01*
X3350D02*
X3500D01*
X3600Y4000D01*
Y4250D01*
X3500Y4350D02*
X3600Y4250D01*
X3400Y4350D02*
X3500D01*
X3150D02*
X3400D01*
X3150Y4150D02*
X3400D01*
X1118Y668D02*
Y805D01*
X1100Y650D02*
X1118Y668D01*
X864Y664D02*
Y805D01*
X850Y650D02*
X864Y664D01*
X609Y659D02*
Y805D01*
X600Y650D02*
X609Y659D01*
X350Y849D02*
X356Y855D01*
X350Y650D02*
Y799D01*
X990Y805D02*
Y940D01*
D19*
X4345Y1255D02*
X5005D01*
X4275Y1325D02*
X4345Y1255D01*
X4125Y1325D02*
X4275D01*
X4325Y1175D02*
X5025D01*
X4250Y1250D02*
X4325Y1175D01*
X4085Y1250D02*
X4250D01*
X4337Y1014D02*
Y1064D01*
X4225Y1175D02*
X4337Y1064D01*
X4075Y1175D02*
X4225D01*
X2994Y786D02*
Y856D01*
X2825Y1025D02*
X2994Y856D01*
X2650Y1025D02*
X2825D01*
X500Y2550D02*
X600Y2450D01*
Y2060D02*
Y2450D01*
Y2060D02*
X895Y1765D01*
X438Y2512D02*
X525Y2425D01*
Y2025D02*
Y2425D01*
Y2025D02*
X845Y1705D01*
X1400Y2820D02*
X1793D01*
X1100Y2825D02*
X1395D01*
X1609Y2434D02*
X1675Y2500D01*
X1609Y2316D02*
Y2434D01*
X2372Y2372D02*
X2500Y2500D01*
X1165Y1115D02*
X1774D01*
X1000Y950D02*
X1165Y1115D01*
X1025Y1175D02*
X1799D01*
X864Y1014D02*
X1025Y1175D01*
X1725Y995D02*
X1795Y925D01*
X1295Y995D02*
X1725D01*
X1250Y950D02*
X1295Y995D01*
X1750Y1055D02*
X1820Y985D01*
X1207Y1055D02*
X1750D01*
X1132Y980D02*
X1207Y1055D01*
X1774Y1115D02*
X1844Y1045D01*
X1799Y1175D02*
X1869Y1105D01*
X2500Y1175D02*
X2650Y1025D01*
X2325Y1175D02*
X2500D01*
X2463Y1105D02*
X2741Y827D01*
X1869Y1105D02*
X2463D01*
X2420Y1045D02*
X2614Y852D01*
X1844Y1045D02*
X2420D01*
X2244Y1256D02*
Y1364D01*
Y1256D02*
X2325Y1175D01*
X2525Y625D02*
X2775D01*
X2528Y621D02*
Y622D01*
X2525Y625D02*
X2528Y622D01*
X2775Y625D02*
X2867Y718D01*
Y786D01*
X1595Y1905D02*
X2620D01*
X1228Y2272D02*
X1595Y1905D01*
X1650Y1965D02*
X2645D01*
X1356Y2260D02*
X1650Y1965D01*
X1675Y2025D02*
X2675D01*
X1482Y2217D02*
X1675Y2025D01*
X3990Y1260D02*
X4075Y1175D01*
X4010Y1325D02*
X4085Y1250D01*
X5005Y1255D02*
X5044Y1294D01*
X4065Y1385D02*
X4125Y1325D01*
X5025Y1175D02*
X5240Y1390D01*
X3285Y1325D02*
X4010D01*
X3315Y1385D02*
X4065D01*
X4133Y1014D02*
X4210D01*
X3947Y1200D02*
X4133Y1014D01*
X3890D02*
Y1074D01*
X3825Y1140D02*
X3890Y1074D01*
X5240Y1390D02*
X5590D01*
X5200Y1450D02*
X5550D01*
X5044Y1294D02*
X5200Y1450D01*
X350Y2766D02*
X384D01*
X500Y2650D01*
Y2550D02*
Y2650D01*
X895Y1765D02*
X1285D01*
X1482Y1568D01*
Y1364D02*
Y1568D01*
X350Y2512D02*
X438D01*
X845Y1705D02*
X1245D01*
X1356Y1594D01*
Y1364D02*
Y1594D01*
X350Y1750D02*
X700D01*
X974Y1476D01*
Y1364D02*
Y1476D01*
X1228Y1528D02*
X1250Y1550D01*
X1228Y1364D02*
Y1528D01*
X1100Y1600D02*
X1102Y1598D01*
Y1364D02*
Y1598D01*
X1700Y2150D02*
X1736Y2186D01*
Y2316D01*
X1864Y2161D02*
X1875Y2150D01*
X1864Y2161D02*
Y2316D01*
X2372D02*
Y2372D01*
X2052Y3078D02*
X2476D01*
X1793Y2820D02*
X2052Y3078D01*
X2375Y1367D02*
Y1525D01*
X2372Y1364D02*
X2375Y1367D01*
X2244Y2256D02*
X2375Y2125D01*
Y2150D01*
X2244Y2256D02*
Y2316D01*
X1765Y1690D02*
X2745D01*
X3235Y1200D02*
X3947D01*
X2745Y1690D02*
X3235Y1200D01*
X3210Y1140D02*
X3825D01*
X2720Y1630D02*
X3210Y1140D01*
X1805Y1630D02*
X2720D01*
X2645Y1965D02*
X3285Y1325D01*
X3265Y1260D02*
X3990D01*
X2620Y1905D02*
X3265Y1260D01*
X1609Y1535D02*
X1765Y1690D01*
X1736Y1561D02*
X1805Y1630D01*
X1736Y1364D02*
Y1561D01*
X1609Y1364D02*
Y1535D01*
X3275Y700D02*
X3450D01*
X3135Y1750D02*
X3200D01*
X2740Y2145D02*
X3135Y1750D01*
X2655Y2145D02*
X2740D01*
X2625Y2175D02*
X2655Y2145D01*
X2625Y2175D02*
Y2316D01*
X3275Y300D02*
X3450D01*
X3225Y1575D02*
X3275D01*
X2715Y2085D02*
X3225Y1575D01*
X2575Y2085D02*
X2715D01*
X2499Y2161D02*
X2575Y2085D01*
X2499Y2161D02*
Y2316D01*
X2675Y2025D02*
X3315Y1385D01*
X4590Y939D02*
Y1014D01*
X4538Y887D02*
X4590Y939D01*
X4531Y894D02*
X4538Y887D01*
X4156Y894D02*
X4531D01*
X4036Y1014D02*
X4156Y894D01*
X3890Y1014D02*
X4036D01*
X4337D02*
X4463D01*
X1228Y2272D02*
Y2316D01*
X5740Y1540D02*
Y1586D01*
X5590Y1390D02*
X5740Y1540D01*
X1356Y2260D02*
Y2316D01*
X5613Y1514D02*
Y1586D01*
X5550Y1450D02*
X5613Y1514D01*
X1482Y2217D02*
Y2316D01*
X2741Y786D02*
Y827D01*
X2614Y786D02*
Y852D01*
X2486Y786D02*
Y864D01*
X2365Y985D02*
X2486Y864D01*
X1820Y985D02*
X2365D01*
X2359Y786D02*
Y890D01*
X2325Y925D02*
X2359Y890D01*
X1795Y925D02*
X2325D01*
X2230Y470D02*
X2359Y340D01*
X2270Y530D02*
X2486Y313D01*
X2310Y590D02*
X2614Y287D01*
X2350Y650D02*
X2741Y260D01*
X650Y350D02*
X1530D01*
X350Y650D02*
X650Y350D01*
X692Y410D02*
X1505D01*
X482Y619D02*
X692Y410D01*
X482Y619D02*
Y805D01*
X780Y470D02*
X1481D01*
X600Y650D02*
X780Y470D01*
X822Y530D02*
X1456D01*
X736Y615D02*
X822Y530D01*
X736Y615D02*
Y805D01*
X2486Y214D02*
Y313D01*
X2614Y214D02*
Y287D01*
X2741Y214D02*
Y260D01*
X2359Y214D02*
Y340D01*
X1650Y470D02*
X2230D01*
X1625Y530D02*
X2270D01*
X1601Y590D02*
X2310D01*
X1530Y350D02*
X1650Y470D01*
X1505Y410D02*
X1625Y530D01*
X1481Y470D02*
X1601Y590D01*
X1576Y650D02*
X2350D01*
X1456Y530D02*
X1576Y650D01*
X736Y805D02*
Y936D01*
X750Y950D01*
X482Y805D02*
Y932D01*
X500Y950D01*
X1244Y805D02*
Y944D01*
X1250Y950D01*
X1118Y805D02*
Y968D01*
X990Y940D02*
X1000Y950D01*
X864Y805D02*
Y1014D01*
X1118Y968D02*
X1130Y980D01*
X1132D01*
D20*
X0Y0D02*
Y4500D01*
X6300D01*
Y0D02*
Y4500D01*
X0Y0D02*
X6300D01*
D21*
X350Y1750D02*
D03*
D22*
Y2004D02*
D03*
Y2258D02*
D03*
Y2512D02*
D03*
Y2766D02*
D03*
Y3020D02*
D03*
X5746Y2350D02*
D03*
X5492D02*
D03*
X5238D02*
D03*
X4984D02*
D03*
X4730D02*
D03*
X3968D02*
D03*
X4222D02*
D03*
X4476D02*
D03*
X3206D02*
D03*
X3460D02*
D03*
X3714D02*
D03*
D23*
X1700Y850D02*
D03*
Y350D02*
D03*
D24*
X6000Y2350D02*
D03*
D25*
X1300Y3350D02*
D03*
X2900Y2700D02*
D03*
X3350Y2000D02*
D03*
X4900Y150D02*
D03*
X1700D02*
D03*
X4850Y4350D02*
D03*
X2800D02*
D03*
X250Y150D02*
D03*
Y4350D02*
D03*
X6050Y150D02*
D03*
Y4350D02*
D03*
X2250Y3200D02*
D03*
X1100Y2825D02*
D03*
X1400Y2825D02*
D03*
X1675Y2500D02*
D03*
X2500D02*
D03*
X3450Y2550D02*
D03*
X2528Y621D02*
D03*
X2725Y1175D02*
D03*
Y1350D02*
D03*
X2305Y1800D02*
D03*
X950Y2150D02*
D03*
X1150D02*
D03*
X4650Y1450D02*
D03*
X3700Y800D02*
D03*
X3300Y2900D02*
D03*
X1250Y1550D02*
D03*
X1100Y1600D02*
D03*
X1700Y2150D02*
D03*
X1875D02*
D03*
X2950Y3950D02*
D03*
X1950D02*
D03*
X2375Y1525D02*
D03*
Y2150D02*
D03*
X1850Y1525D02*
D03*
X2825Y375D02*
D03*
X3025D02*
D03*
X3275Y700D02*
D03*
X3200Y1750D02*
D03*
X3275Y300D02*
D03*
Y1575D02*
D03*
X3975Y1550D02*
D03*
X3425D02*
D03*
X2000Y800D02*
D03*
X2100Y350D02*
D03*
X2125Y1225D02*
D03*
X1975D02*
D03*
X4150Y1450D02*
D03*
X5000Y1400D02*
D03*
X5300Y1200D02*
D03*
X4600Y750D02*
D03*
X1750Y3100D02*
D03*
Y2925D02*
D03*
X1250Y4100D02*
D03*
X2250Y3950D02*
D03*
X2250Y4150D02*
D03*
X1800Y3300D02*
D03*
X1700Y3450D02*
D03*
X1800Y3600D02*
D03*
X1700Y3750D02*
D03*
X2185Y3700D02*
D03*
X2750Y3550D02*
D03*
X4350Y3950D02*
D03*
X4250Y3100D02*
D03*
X3650D02*
D03*
Y3550D02*
D03*
X3950Y3250D02*
D03*
X3887Y3800D02*
D03*
X5850Y3650D02*
D03*
Y2650D02*
D03*
X4400Y3350D02*
D03*
X5850Y3250D02*
D03*
X5300Y2650D02*
D03*
X1350Y3850D02*
D03*
X1100Y4100D02*
D03*
X2151Y2151D02*
D03*
X4750Y1725D02*
D03*
X3650Y3800D02*
D03*
X1100Y650D02*
D03*
X850D02*
D03*
X600D02*
D03*
X350D02*
D03*
X1000Y950D02*
D03*
X750D02*
D03*
X500D02*
D03*
X1250D02*
D03*
X2250Y2950D02*
D03*
X1450Y800D02*
D03*
X3150Y1050D02*
D03*
X1550Y1650D02*
D03*
M02*
