G04 Layer_Color=8388736*
%FSLAX42Y42*%
%MOMM*%
G71*
G01*
G75*
%ADD20C,0.25*%
%ADD26R,1.80X2.60*%
%ADD27R,0.80X1.70*%
%ADD28R,1.60X1.20*%
%ADD29R,1.20X1.60*%
%ADD30R,1.70X1.90*%
%ADD31R,1.00X1.00*%
%ADD32R,1.70X0.80*%
%ADD33R,2.00X2.00*%
%ADD34C,2.00*%
%ADD35C,1.70*%
%ADD36R,2.00X2.00*%
%ADD37C,1.40*%
D20*
X0Y0D02*
Y4500D01*
X6300D01*
Y0D02*
Y4500D01*
X0Y0D02*
X6300D01*
D26*
X2300Y2650D02*
D03*
X2000D02*
D03*
D27*
X2106Y214D02*
D03*
Y786D02*
D03*
X2994Y214D02*
D03*
X2867D02*
D03*
X2741D02*
D03*
X2614D02*
D03*
X2486D02*
D03*
X2359D02*
D03*
X2233D02*
D03*
Y786D02*
D03*
X2359D02*
D03*
X2486D02*
D03*
X2614D02*
D03*
X2741D02*
D03*
X2867D02*
D03*
X2994D02*
D03*
X974Y1364D02*
D03*
X1102D02*
D03*
X1228D02*
D03*
X1356D02*
D03*
X1482D02*
D03*
X1609D02*
D03*
X1736D02*
D03*
X2625D02*
D03*
X2499D02*
D03*
X2372D02*
D03*
X2244D02*
D03*
X2117D02*
D03*
X1991D02*
D03*
X1864D02*
D03*
Y2316D02*
D03*
X1991D02*
D03*
X2117D02*
D03*
X2244D02*
D03*
X2372D02*
D03*
X2499D02*
D03*
X2625D02*
D03*
X1736D02*
D03*
X1609D02*
D03*
X1482D02*
D03*
X1356D02*
D03*
X1228D02*
D03*
X1102D02*
D03*
X974D02*
D03*
X3510Y1586D02*
D03*
X3637D02*
D03*
X3763D02*
D03*
X3890D02*
D03*
Y1014D02*
D03*
X3763D02*
D03*
X3637D02*
D03*
X3510D02*
D03*
X4210Y1586D02*
D03*
X4337D02*
D03*
X4463D02*
D03*
X4590D02*
D03*
Y1014D02*
D03*
X4463D02*
D03*
X4337D02*
D03*
X4210D02*
D03*
X5994Y1586D02*
D03*
Y1014D02*
D03*
X5106Y1586D02*
D03*
X5233D02*
D03*
X5360D02*
D03*
X5487D02*
D03*
X5613D02*
D03*
X5740D02*
D03*
X5867D02*
D03*
Y1014D02*
D03*
X5740D02*
D03*
X5613D02*
D03*
X5487D02*
D03*
X5360D02*
D03*
X5233D02*
D03*
X5106D02*
D03*
X4140Y3636D02*
D03*
X4013D02*
D03*
X3887D02*
D03*
X3760D02*
D03*
Y3064D02*
D03*
X3887D02*
D03*
X4013D02*
D03*
X4140D02*
D03*
X1244Y805D02*
D03*
Y195D02*
D03*
X356Y805D02*
D03*
X482D02*
D03*
X609D02*
D03*
X736D02*
D03*
X864D02*
D03*
X990D02*
D03*
X1118D02*
D03*
Y195D02*
D03*
X990D02*
D03*
X864D02*
D03*
X736D02*
D03*
X609D02*
D03*
X482D02*
D03*
X356D02*
D03*
D28*
X4200Y3950D02*
D03*
Y4150D02*
D03*
X5150Y750D02*
D03*
Y550D02*
D03*
X5450Y750D02*
D03*
Y550D02*
D03*
X5750D02*
D03*
Y750D02*
D03*
X3400Y4150D02*
D03*
Y4350D02*
D03*
X3150D02*
D03*
Y4150D02*
D03*
X2750Y3850D02*
D03*
Y3650D02*
D03*
D29*
X5500Y4400D02*
D03*
X5700D02*
D03*
X5500Y4150D02*
D03*
X5700D02*
D03*
X5500Y3900D02*
D03*
X5700D02*
D03*
X5500Y3650D02*
D03*
X5700D02*
D03*
X5500Y2650D02*
D03*
X5700D02*
D03*
X5500Y2900D02*
D03*
X5700D02*
D03*
X5500Y3400D02*
D03*
X5700D02*
D03*
X5500Y3150D02*
D03*
X5700D02*
D03*
X4050Y200D02*
D03*
X3850D02*
D03*
X4050Y600D02*
D03*
X3850D02*
D03*
X3600Y1850D02*
D03*
X3800D02*
D03*
X4300D02*
D03*
X4500D02*
D03*
X5250D02*
D03*
X5050D02*
D03*
X3350Y3900D02*
D03*
X3150D02*
D03*
X1050Y4350D02*
D03*
X1250D02*
D03*
D30*
X4300Y200D02*
D03*
X4600D02*
D03*
X4300Y600D02*
D03*
X4600D02*
D03*
X3000Y3050D02*
D03*
X3300D02*
D03*
X3150Y3350D02*
D03*
X3450D02*
D03*
X3150Y3650D02*
D03*
X3450D02*
D03*
X4000Y2750D02*
D03*
X3700D02*
D03*
D31*
X3650Y600D02*
D03*
X3450Y500D02*
D03*
Y700D02*
D03*
X3650Y200D02*
D03*
X3450Y100D02*
D03*
Y300D02*
D03*
X4000Y4050D02*
D03*
X3800Y3950D02*
D03*
Y4150D02*
D03*
D32*
X5205Y3056D02*
D03*
Y3183D02*
D03*
Y3310D02*
D03*
Y3437D02*
D03*
Y3563D02*
D03*
Y3690D02*
D03*
Y3817D02*
D03*
X4595D02*
D03*
Y3690D02*
D03*
Y3563D02*
D03*
Y3437D02*
D03*
Y3310D02*
D03*
Y3183D02*
D03*
Y3056D02*
D03*
X5205Y3944D02*
D03*
X4595D02*
D03*
X1524Y2951D02*
D03*
Y3078D02*
D03*
Y3206D02*
D03*
Y4094D02*
D03*
Y3967D02*
D03*
Y3840D02*
D03*
Y3713D02*
D03*
Y3587D02*
D03*
Y3460D02*
D03*
Y3333D02*
D03*
X2476Y3840D02*
D03*
Y3967D02*
D03*
Y4094D02*
D03*
Y4222D02*
D03*
Y4349D02*
D03*
Y3713D02*
D03*
Y3587D02*
D03*
Y3460D02*
D03*
Y3333D02*
D03*
Y3206D02*
D03*
Y3078D02*
D03*
Y2951D02*
D03*
X1524Y4349D02*
D03*
Y4222D02*
D03*
D33*
X350Y1750D02*
D03*
D34*
Y2004D02*
D03*
Y2258D02*
D03*
Y2512D02*
D03*
Y2766D02*
D03*
Y3020D02*
D03*
X5746Y2350D02*
D03*
X5492D02*
D03*
X5238D02*
D03*
X4984D02*
D03*
X4730D02*
D03*
X3968D02*
D03*
X4222D02*
D03*
X4476D02*
D03*
X3206D02*
D03*
X3460D02*
D03*
X3714D02*
D03*
D35*
X1700Y850D02*
D03*
Y350D02*
D03*
D36*
X6000Y2350D02*
D03*
D37*
X1300Y3350D02*
D03*
X2900Y2700D02*
D03*
X3350Y2000D02*
D03*
X4900Y150D02*
D03*
X1700D02*
D03*
X4850Y4350D02*
D03*
X2800D02*
D03*
X250Y150D02*
D03*
Y4350D02*
D03*
X6050Y150D02*
D03*
Y4350D02*
D03*
X2250Y3200D02*
D03*
X1100Y2825D02*
D03*
X1400Y2825D02*
D03*
X1675Y2500D02*
D03*
X2500D02*
D03*
X3450Y2550D02*
D03*
X2528Y621D02*
D03*
X2725Y1175D02*
D03*
Y1350D02*
D03*
X2305Y1800D02*
D03*
X950Y2150D02*
D03*
X1150D02*
D03*
X4650Y1450D02*
D03*
X3700Y800D02*
D03*
X3300Y2900D02*
D03*
X1250Y1550D02*
D03*
X1100Y1600D02*
D03*
X1700Y2150D02*
D03*
X1875D02*
D03*
X2950Y3950D02*
D03*
X1950D02*
D03*
X2375Y1525D02*
D03*
Y2150D02*
D03*
X1850Y1525D02*
D03*
X2825Y375D02*
D03*
X3025D02*
D03*
X3275Y700D02*
D03*
X3200Y1750D02*
D03*
X3275Y300D02*
D03*
Y1575D02*
D03*
X3975Y1550D02*
D03*
X3425D02*
D03*
X2000Y800D02*
D03*
X2100Y350D02*
D03*
X2125Y1225D02*
D03*
X1975D02*
D03*
X4150Y1450D02*
D03*
X5000Y1400D02*
D03*
X5300Y1200D02*
D03*
X4600Y750D02*
D03*
X1750Y3100D02*
D03*
Y2925D02*
D03*
X1250Y4100D02*
D03*
X2250Y3950D02*
D03*
X2250Y4150D02*
D03*
X1800Y3300D02*
D03*
X1700Y3450D02*
D03*
X1800Y3600D02*
D03*
X1700Y3750D02*
D03*
X2185Y3700D02*
D03*
X2750Y3550D02*
D03*
X4350Y3950D02*
D03*
X4250Y3100D02*
D03*
X3650D02*
D03*
Y3550D02*
D03*
X3950Y3250D02*
D03*
X3887Y3800D02*
D03*
X5850Y3650D02*
D03*
Y2650D02*
D03*
X4400Y3350D02*
D03*
X5850Y3250D02*
D03*
X5300Y2650D02*
D03*
X1350Y3850D02*
D03*
X1100Y4100D02*
D03*
X2151Y2151D02*
D03*
X4750Y1725D02*
D03*
X3650Y3800D02*
D03*
X1100Y650D02*
D03*
X850D02*
D03*
X600D02*
D03*
X350D02*
D03*
X1000Y950D02*
D03*
X750D02*
D03*
X500D02*
D03*
X1250D02*
D03*
X2250Y2950D02*
D03*
X1450Y800D02*
D03*
X3150Y1050D02*
D03*
X1550Y1650D02*
D03*
M02*
